<?xml version="1.0" encoding="UTF-8"?>
<svg version="1.1" xmlns="http://www.w3.org/2000/svg" width="32" height="32">
<path d="M0 0 C0.66 0 1.32 0 2 0 C2 0.66 2 1.32 2 2 C6.62 2 11.24 2 16 2 C16 1.34 16 0.68 16 0 C16.66 0 17.32 0 18 0 C18 0.66 18 1.32 18 2 C19.32 2 20.64 2 22 2 C22 9.92 22 17.84 22 26 C13.42 26 4.84 26 -4 26 C-4 18.08 -4 10.16 -4 2 C-2.68 2 -1.36 2 0 2 C0 1.34 0 0.68 0 0 Z M-1 4 C-1.33 5.32 -1.66 6.64 -2 8 C5.26 8 12.52 8 20 8 C19.67 6.68 19.34 5.36 19 4 C18.67 4.66 18.34 5.32 18 6 C17.34 6 16.68 6 16 6 C16 5.34 16 4.68 16 4 C11.38 4 6.76 4 2 4 C2 4.66 2 5.32 2 6 C1.34 6 0.68 6 0 6 C-0.33 5.34 -0.66 4.68 -1 4 Z M-2 10 C-2.020625 12.124375 -2.04125 14.24875 -2.0625 16.4375 C-2.07410156 17.63246094 -2.08570313 18.82742187 -2.09765625 20.05859375 C-2.33901792 22.88873341 -2.33901792 22.88873341 -1 24 C0.47652664 24.09880797 1.95767236 24.13079245 3.4375 24.1328125 C4.77941406 24.13474609 4.77941406 24.13474609 6.1484375 24.13671875 C7.55996094 24.13091797 7.55996094 24.13091797 9 24.125 C9.94101563 24.12886719 10.88203125 24.13273437 11.8515625 24.13671875 C12.74617188 24.13542969 13.64078125 24.13414063 14.5625 24.1328125 C15.80193359 24.13112061 15.80193359 24.13112061 17.06640625 24.12939453 C19.00679039 24.21264807 19.00679039 24.21264807 20 23 C20.07258946 20.81360547 20.08373783 18.62499611 20.0625 16.4375 C20.041875 14.313125 20.02125 12.18875 20 10 C12.74 10 5.48 10 -2 10 Z " fill="#000000" transform="translate(6,2)"/>
<path d="M0 0 C1.98 0 3.96 0 6 0 C6 1.98 6 3.96 6 6 C4.02 6 2.04 6 0 6 C0 4.02 0 2.04 0 0 Z M2 2 C2 2.66 2 3.32 2 4 C2.66 4 3.32 4 4 4 C4 3.34 4 2.68 4 2 C3.34 2 2.68 2 2 2 Z " fill="#000000" transform="translate(16,16)"/>
</svg>
