<?xml version="1.0" encoding="UTF-8"?>
<svg xmlns="http://www.w3.org/2000/svg" xmlns:xlink="http://www.w3.org/1999/xlink" width="22px" height="22px" viewBox="0 0 22 22" version="1.1">
<g id="surface1">
<path style=" stroke:none;fill-rule:nonzero;fill:rgb(0%,0%,0%);fill-opacity:1;" d="M 13.65625 3.503906 L 13.65625 0.496094 C 13.65625 0.222656 13.433594 0 13.160156 0 C 12.886719 0 12.664062 0.222656 12.664062 0.496094 L 12.664062 1.632812 L 12.214844 1.632812 L 12.214844 0.496094 C 12.214844 0.222656 11.992188 0 11.71875 0 C 11.445312 0 11.222656 0.222656 11.222656 0.496094 L 11.222656 1.632812 L 10.777344 1.632812 L 10.777344 0.496094 C 10.777344 0.222656 10.554688 0 10.28125 0 C 10.007812 0 9.785156 0.222656 9.785156 0.496094 L 9.785156 1.632812 L 9.335938 1.632812 L 9.335938 0.496094 C 9.335938 0.222656 9.113281 0 8.839844 0 C 8.566406 0 8.34375 0.222656 8.34375 0.496094 L 8.34375 3.503906 C 7.339844 3.628906 6.558594 4.492188 6.558594 5.53125 L 6.558594 15.8125 C 6.558594 18.074219 8.296875 19.9375 10.503906 20.144531 L 10.503906 21.503906 C 10.503906 21.777344 10.726562 22 11 22 C 11.273438 22 11.496094 21.777344 11.496094 21.503906 L 11.496094 20.144531 C 13.703125 19.9375 15.441406 18.074219 15.441406 15.8125 L 15.441406 5.53125 C 15.441406 4.492188 14.660156 3.628906 13.65625 3.503906 Z M 9.335938 2.625 L 12.664062 2.625 L 12.664062 3.488281 L 9.335938 3.488281 Z M 9.335938 4.476562 L 12.664062 4.476562 L 12.664062 15.671875 C 12.664062 16.589844 11.914062 17.335938 11 17.335938 C 10.082031 17.335938 9.335938 16.589844 9.335938 15.671875 Z M 14.449219 15.8125 C 14.449219 17.664062 12.941406 19.171875 11.089844 19.171875 L 10.910156 19.171875 C 9.058594 19.171875 7.550781 17.664062 7.550781 15.8125 L 7.550781 5.53125 C 7.550781 5.039062 7.890625 4.628906 8.34375 4.511719 L 8.34375 15.671875 C 8.34375 17.136719 9.535156 18.328125 11 18.328125 C 12.464844 18.328125 13.65625 17.136719 13.65625 15.671875 L 13.65625 4.511719 C 14.109375 4.628906 14.449219 5.039062 14.449219 5.53125 Z M 14.449219 15.8125 "/>
<path style=" stroke:none;fill-rule:nonzero;fill:rgb(0%,0%,0%);fill-opacity:1;" d="M 11 12.484375 C 10.726562 12.484375 10.503906 12.707031 10.503906 12.980469 L 10.503906 15.363281 C 10.503906 15.636719 10.726562 15.859375 11 15.859375 C 11.273438 15.859375 11.496094 15.636719 11.496094 15.363281 L 11.496094 12.980469 C 11.496094 12.707031 11.273438 12.484375 11 12.484375 Z M 11 12.484375 "/>
<path style=" stroke:none;fill-rule:nonzero;fill:rgb(0%,0%,0%);fill-opacity:1;" d="M 11 10.832031 C 10.726562 10.832031 10.503906 11.054688 10.503906 11.328125 L 10.503906 11.527344 C 10.503906 11.800781 10.726562 12.023438 11 12.023438 C 11.273438 12.023438 11.496094 11.800781 11.496094 11.527344 L 11.496094 11.328125 C 11.496094 11.054688 11.273438 10.832031 11 10.832031 Z M 11 10.832031 "/>
</g>
</svg>
