<?xml version="1.0" encoding="UTF-8"?>
<svg xmlns="http://www.w3.org/2000/svg" xmlns:xlink="http://www.w3.org/1999/xlink" width="22px" height="22px" viewBox="0 0 22 22" version="1.1">
<g id="surface1">
<path style=" stroke:none;fill-rule:nonzero;fill:rgb(0%,0%,0%);fill-opacity:1;" d="M 17.457031 3.492188 L 19.203125 1.746094 L 20.25 2.792969 L 18.503906 4.539062 Z M 17.457031 3.492188 "/>
<path style=" stroke:none;fill-rule:nonzero;fill:rgb(0%,0%,0%);fill-opacity:1;" d="M 15.714844 1.746094 L 17.460938 0 L 18.507812 1.046875 L 16.761719 2.792969 Z M 15.714844 1.746094 "/>
<path style=" stroke:none;fill-rule:nonzero;fill:rgb(0%,0%,0%);fill-opacity:1;" d="M 19.203125 5.234375 L 20.949219 3.488281 L 21.996094 4.539062 L 20.25 6.285156 Z M 19.203125 5.234375 "/>
<path style=" stroke:none;fill-rule:nonzero;fill:rgb(0%,0%,0%);fill-opacity:1;" d="M 20.25 6.285156 L 18.503906 8.03125 L 17.457031 6.984375 L 19.203125 5.238281 L 18.503906 4.539062 L 16.757812 6.285156 L 15.710938 5.238281 L 17.457031 3.492188 L 16.234375 2.269531 L 16.757812 2.792969 L 15.015625 4.539062 L 13.964844 3.492188 L 15.710938 1.746094 L 14.839844 0.871094 L 10.300781 5.410156 C 9.722656 5.988281 9.722656 6.925781 10.300781 7.507812 L 14.488281 11.695312 C 15.070312 12.273438 16.007812 12.273438 16.585938 11.695312 L 21.125 7.15625 Z M 15.015625 8.378906 C 14.628906 8.765625 14 8.765625 13.617188 8.378906 C 13.230469 7.996094 13.230469 7.367188 13.617188 6.984375 C 14.003906 6.597656 14.628906 6.597656 15.011719 6.980469 C 15.398438 7.367188 15.398438 7.996094 15.015625 8.378906 Z M 15.015625 8.378906 "/>
<path style=" stroke:none;fill-rule:nonzero;fill:rgb(0%,0%,0%);fill-opacity:1;" d="M 13.441406 12.742188 L 9.253906 8.554688 C 9.039062 8.34375 8.867188 8.105469 8.730469 7.847656 C 7.003906 9.820312 3.949219 13.367188 2.96875 14.839844 C 2.203125 15.984375 1.90625 17.34375 2.519531 18.4375 L 0.00390625 20.953125 L 1.050781 22 L 3.566406 19.484375 C 4.660156 20.085938 6.015625 19.789062 7.15625 19.027344 C 8.628906 18.046875 12.175781 14.992188 14.148438 13.265625 C 13.894531 13.132812 13.65625 12.957031 13.441406 12.742188 Z M 13.441406 12.742188 "/>
</g>
</svg>
