<?xml version="1.0" encoding="UTF-8"?>
<svg xmlns="http://www.w3.org/2000/svg" width="22px" height="22px" viewBox="0 0 22 22" version="1.1">
<g id="surface1">
  <!-- Main clipper body -->
  <rect x="4" y="8" width="12" height="6" rx="1" ry="1" style="fill:#0A76D8;stroke:#006dd3;stroke-width:0.5"/>
  
  <!-- Clipper head/blade area -->
  <rect x="4" y="6" width="12" height="2" rx="0.5" ry="0.5" style="fill:#127edc;stroke:#0A76D8;stroke-width:0.3"/>
  
  <!-- Blade teeth -->
  <path d="M 4.5 6 L 4.5 8 M 5.5 6 L 5.5 8 M 6.5 6 L 6.5 8 M 7.5 6 L 7.5 8 M 8.5 6 L 8.5 8 M 9.5 6 L 9.5 8 M 10.5 6 L 10.5 8 M 11.5 6 L 11.5 8 M 12.5 6 L 12.5 8 M 13.5 6 L 13.5 8 M 14.5 6 L 14.5 8 M 15.5 6 L 15.5 8" 
        style="stroke:#006dd3;stroke-width:0.3;fill:none"/>
  
  <!-- Handle -->
  <rect x="6" y="10" width="8" height="3" rx="1.5" ry="1.5" style="fill:#1b62b3;stroke:#0A76D8;stroke-width:0.3"/>
  
  <!-- Power button -->
  <circle cx="8" cy="11.5" r="0.8" style="fill:#D8EBFA;stroke:#1b62b3;stroke-width:0.2"/>
  
  <!-- Cord -->
  <path d="M 16 11.5 Q 18 11.5 19 12 Q 20 12.5 20 14" 
        style="stroke:#006dd3;stroke-width:1.5;fill:none;stroke-linecap:round"/>
  
  <!-- Cord plug -->
  <rect x="19.5" y="13.5" width="1.5" height="1" rx="0.2" ry="0.2" style="fill:#0A76D8;stroke:#006dd3;stroke-width:0.2"/>
</g>
</svg>
