<?xml version="1.0" encoding="UTF-8"?>
<svg xmlns="http://www.w3.org/2000/svg" xmlns:xlink="http://www.w3.org/1999/xlink" width="25px" height="25px" viewBox="0 0 25 25" version="1.1">
<g id="surface1">
<path style=" stroke:none;fill-rule:nonzero;fill:rgb(0%,0%,0%);fill-opacity:1;" d="M 5.710938 0 C 6.003906 0.132812 6.03125 0.238281 6.203125 0.539062 C 6.203125 0.875 6.203125 1.214844 6.203125 1.5625 C 7.25 1.5625 8.296875 1.5625 9.375 1.5625 C 9.375 1.242188 9.375 0.917969 9.375 0.585938 C 9.613281 0.109375 9.613281 0.109375 9.863281 0 C 10.101562 -0.03125 10.316406 -0.0351562 10.542969 0.0585938 C 10.6875 0.183594 10.804688 0.316406 10.890625 0.488281 C 10.890625 0.84375 10.890625 1.195312 10.890625 1.5625 C 11.953125 1.5625 13.015625 1.5625 14.109375 1.5625 C 14.109375 1.207031 14.109375 0.851562 14.109375 0.488281 C 14.390625 0.0703125 14.390625 0.0703125 14.601562 0 C 14.851562 -0.0234375 15.070312 -0.03125 15.304688 0.0742188 C 15.429688 0.195312 15.429688 0.195312 15.625 0.585938 C 15.625 0.910156 15.625 1.230469 15.625 1.5625 C 16.671875 1.5625 17.71875 1.5625 18.796875 1.5625 C 18.796875 1.222656 18.796875 0.886719 18.796875 0.539062 C 18.9375 0.261719 19.019531 0.132812 19.289062 0 C 19.546875 -0.0273438 19.757812 -0.03125 19.996094 0.0859375 C 20.152344 0.230469 20.246094 0.332031 20.3125 0.539062 C 20.316406 0.617188 20.316406 0.695312 20.316406 0.777344 C 20.316406 0.820312 20.316406 0.867188 20.316406 0.914062 C 20.316406 0.960938 20.316406 1.011719 20.316406 1.058594 C 20.316406 1.105469 20.316406 1.15625 20.316406 1.207031 C 20.3125 1.324219 20.3125 1.445312 20.3125 1.5625 C 20.34375 1.5625 20.371094 1.5625 20.402344 1.5625 C 20.714844 1.558594 21.027344 1.554688 21.339844 1.550781 C 21.457031 1.550781 21.574219 1.550781 21.691406 1.546875 C 22.738281 1.53125 23.507812 1.625 24.300781 2.367188 C 24.742188 2.84375 25.003906 3.4375 25.007812 4.085938 C 25.007812 4.117188 25.007812 4.148438 25.007812 4.183594 C 25.007812 4.292969 25.007812 4.398438 25.007812 4.507812 C 25.007812 4.585938 25.007812 4.664062 25.007812 4.742188 C 25.007812 4.957031 25.007812 5.171875 25.007812 5.390625 C 25.007812 5.621094 25.007812 5.851562 25.007812 6.085938 C 25.011719 6.644531 25.011719 7.207031 25.011719 7.769531 C 25.011719 8.03125 25.011719 8.296875 25.011719 8.558594 C 25.011719 9.4375 25.015625 10.316406 25.015625 11.195312 C 25.015625 11.421875 25.015625 11.652344 25.015625 11.878906 C 25.015625 11.9375 25.015625 11.992188 25.015625 12.050781 C 25.015625 12.96875 25.015625 13.886719 25.019531 14.804688 C 25.019531 15.746094 25.019531 16.6875 25.019531 17.628906 C 25.019531 18.160156 25.019531 18.6875 25.023438 19.214844 C 25.023438 19.667969 25.023438 20.117188 25.023438 20.566406 C 25.023438 20.796875 25.023438 21.027344 25.023438 21.257812 C 25.023438 21.46875 25.023438 21.679688 25.023438 21.890625 C 25.023438 21.964844 25.023438 22.039062 25.023438 22.117188 C 25.03125 22.988281 24.792969 23.660156 24.195312 24.300781 C 23.710938 24.753906 23.113281 25.003906 22.453125 25.007812 C 22.398438 25.007812 22.398438 25.007812 22.347656 25.007812 C 22.230469 25.007812 22.113281 25.007812 21.996094 25.007812 C 21.910156 25.007812 21.824219 25.007812 21.742188 25.007812 C 21.507812 25.007812 21.273438 25.007812 21.042969 25.007812 C 20.789062 25.007812 20.539062 25.007812 20.289062 25.007812 C 19.679688 25.011719 19.074219 25.011719 18.464844 25.011719 C 18.179688 25.011719 17.894531 25.011719 17.609375 25.011719 C 16.65625 25.011719 15.707031 25.015625 14.753906 25.015625 C 14.507812 25.015625 14.261719 25.015625 14.015625 25.015625 C 13.953125 25.015625 13.894531 25.015625 13.828125 25.015625 C 12.835938 25.015625 11.84375 25.015625 10.851562 25.019531 C 9.832031 25.019531 8.808594 25.019531 7.789062 25.019531 C 7.21875 25.019531 6.644531 25.019531 6.074219 25.023438 C 5.585938 25.023438 5.097656 25.023438 4.609375 25.023438 C 4.363281 25.023438 4.113281 25.023438 3.863281 25.023438 C 3.636719 25.023438 3.40625 25.023438 3.179688 25.023438 C 3.097656 25.023438 3.015625 25.023438 2.933594 25.023438 C 2.046875 25.03125 1.355469 24.808594 0.699219 24.195312 C 0.277344 23.742188 -0.00390625 23.152344 -0.0078125 22.53125 C -0.0078125 22.5 -0.0078125 22.464844 -0.0078125 22.433594 C -0.0078125 22.324219 -0.0078125 22.214844 -0.0078125 22.109375 C -0.0078125 22.027344 -0.0078125 21.949219 -0.0078125 21.871094 C -0.0078125 21.65625 -0.0078125 21.441406 -0.0078125 21.222656 C -0.0078125 20.992188 -0.0078125 20.757812 -0.0078125 20.527344 C -0.0117188 19.964844 -0.0117188 19.402344 -0.0117188 18.839844 C -0.0117188 18.574219 -0.0117188 18.308594 -0.0117188 18.042969 C -0.0117188 17.164062 -0.015625 16.28125 -0.015625 15.402344 C -0.015625 15.171875 -0.015625 14.945312 -0.015625 14.714844 C -0.015625 14.65625 -0.015625 14.601562 -0.015625 14.542969 C -0.015625 13.621094 -0.015625 12.703125 -0.0195312 11.78125 C -0.0195312 10.835938 -0.0195312 9.894531 -0.0195312 8.949219 C -0.0195312 8.417969 -0.0195312 7.886719 -0.0234375 7.355469 C -0.0234375 6.90625 -0.0234375 6.453125 -0.0234375 6 C -0.0234375 5.769531 -0.0234375 5.539062 -0.0234375 5.308594 C -0.0234375 5.097656 -0.0234375 4.886719 -0.0234375 4.675781 C -0.0234375 4.601562 -0.0234375 4.523438 -0.0234375 4.449219 C -0.03125 3.574219 0.207031 2.902344 0.804688 2.261719 C 1.238281 1.855469 1.84375 1.554688 2.449219 1.558594 C 2.496094 1.558594 2.546875 1.558594 2.597656 1.558594 C 2.652344 1.558594 2.707031 1.558594 2.761719 1.558594 C 2.84375 1.558594 2.84375 1.558594 2.929688 1.558594 C 3.101562 1.558594 3.277344 1.558594 3.453125 1.558594 C 3.574219 1.558594 3.691406 1.558594 3.8125 1.558594 C 4.105469 1.5625 4.394531 1.5625 4.6875 1.5625 C 4.6875 1.53125 4.6875 1.503906 4.683594 1.472656 C 4.683594 1.339844 4.679688 1.203125 4.679688 1.066406 C 4.675781 1.023438 4.675781 0.976562 4.675781 0.925781 C 4.671875 0.660156 4.679688 0.472656 4.835938 0.242188 C 5.117188 -0.0117188 5.335938 -0.0390625 5.710938 0 Z M 1.734375 3.515625 C 1.214844 4.292969 1.464844 5.414062 1.464844 6.25 C 8.75 6.25 16.03125 6.25 23.535156 6.25 C 23.679688 4.75 23.679688 4.75 23.144531 3.367188 C 22.90625 3.179688 22.6875 3.070312 22.378906 3.070312 C 22.335938 3.070312 22.289062 3.070312 22.242188 3.070312 C 22.167969 3.070312 22.167969 3.070312 22.089844 3.070312 C 22.015625 3.070312 22.015625 3.070312 21.9375 3.070312 C 21.773438 3.070312 21.613281 3.074219 21.449219 3.074219 C 21.339844 3.074219 21.230469 3.074219 21.121094 3.074219 C 20.851562 3.074219 20.582031 3.074219 20.3125 3.078125 C 20.3125 3.121094 20.3125 3.121094 20.3125 3.164062 C 20.308594 3.300781 20.304688 3.4375 20.300781 3.570312 C 20.300781 3.617188 20.300781 3.664062 20.296875 3.710938 C 20.285156 4.058594 20.222656 4.226562 19.984375 4.484375 C 19.742188 4.609375 19.507812 4.613281 19.246094 4.535156 C 19.035156 4.410156 18.925781 4.285156 18.847656 4.054688 C 18.832031 3.730469 18.816406 3.40625 18.796875 3.078125 C 17.75 3.078125 16.703125 3.078125 15.625 3.078125 C 15.609375 3.382812 15.59375 3.6875 15.578125 4.003906 C 15.394531 4.425781 15.394531 4.425781 15.1875 4.539062 C 14.890625 4.621094 14.660156 4.605469 14.390625 4.46875 C 14.304688 4.394531 14.304688 4.394531 14.160156 4.101562 C 14.144531 3.761719 14.128906 3.425781 14.109375 3.078125 C 13.046875 3.078125 11.984375 3.078125 10.890625 3.078125 C 10.871094 3.414062 10.855469 3.753906 10.839844 4.101562 C 10.667969 4.449219 10.667969 4.449219 10.417969 4.558594 C 10.152344 4.628906 9.90625 4.59375 9.671875 4.460938 C 9.3125 4.046875 9.402344 3.628906 9.375 3.078125 C 8.328125 3.078125 7.28125 3.078125 6.203125 3.078125 C 6.183594 3.398438 6.167969 3.71875 6.152344 4.054688 C 5.96875 4.421875 5.96875 4.421875 5.761719 4.539062 C 5.527344 4.597656 5.335938 4.609375 5.109375 4.535156 C 4.941406 4.414062 4.828125 4.285156 4.734375 4.101562 C 4.730469 4.023438 4.722656 3.945312 4.722656 3.867188 C 4.71875 3.820312 4.714844 3.777344 4.714844 3.726562 C 4.710938 3.679688 4.710938 3.632812 4.707031 3.582031 C 4.707031 3.535156 4.703125 3.484375 4.703125 3.4375 C 4.699219 3.316406 4.691406 3.195312 4.6875 3.078125 C 4.371094 3.070312 4.050781 3.066406 3.734375 3.0625 C 3.625 3.0625 3.519531 3.058594 3.410156 3.058594 C 3.253906 3.054688 3.097656 3.054688 2.941406 3.050781 C 2.871094 3.050781 2.871094 3.050781 2.796875 3.046875 C 2.367188 3.046875 2.007812 3.171875 1.734375 3.515625 Z M 1.464844 7.765625 C 1.460938 10.15625 1.460938 12.546875 1.457031 15.011719 C 1.457031 15.765625 1.457031 16.523438 1.457031 17.300781 C 1.457031 17.976562 1.457031 17.976562 1.457031 18.65625 C 1.457031 18.957031 1.453125 19.257812 1.453125 19.558594 C 1.453125 19.90625 1.453125 20.253906 1.453125 20.601562 C 1.453125 20.78125 1.453125 20.960938 1.453125 21.136719 C 1.453125 21.328125 1.453125 21.519531 1.453125 21.710938 C 1.453125 21.765625 1.453125 21.820312 1.453125 21.875 C 1.453125 22.386719 1.511719 22.800781 1.855469 23.195312 C 2.316406 23.589844 2.910156 23.550781 3.480469 23.546875 C 3.5625 23.546875 3.644531 23.546875 3.722656 23.546875 C 3.945312 23.546875 4.167969 23.546875 4.390625 23.546875 C 4.628906 23.546875 4.867188 23.546875 5.109375 23.546875 C 5.578125 23.546875 6.046875 23.546875 6.515625 23.546875 C 6.898438 23.546875 7.277344 23.546875 7.660156 23.546875 C 7.714844 23.546875 7.769531 23.546875 7.824219 23.546875 C 7.933594 23.546875 8.046875 23.546875 8.15625 23.546875 C 9.191406 23.546875 10.222656 23.546875 11.257812 23.546875 C 12.144531 23.546875 13.03125 23.546875 13.917969 23.546875 C 14.949219 23.546875 15.980469 23.546875 17.011719 23.546875 C 17.121094 23.546875 17.230469 23.546875 17.339844 23.546875 C 17.421875 23.546875 17.421875 23.546875 17.503906 23.546875 C 17.882812 23.546875 18.265625 23.546875 18.644531 23.546875 C 19.109375 23.546875 19.574219 23.546875 20.039062 23.546875 C 20.277344 23.546875 20.511719 23.546875 20.75 23.546875 C 20.964844 23.546875 21.183594 23.546875 21.398438 23.546875 C 21.476562 23.546875 21.554688 23.546875 21.636719 23.546875 C 22.21875 23.550781 22.734375 23.546875 23.195312 23.144531 C 23.546875 22.734375 23.550781 22.226562 23.546875 21.710938 C 23.546875 21.648438 23.546875 21.589844 23.546875 21.527344 C 23.546875 21.363281 23.546875 21.199219 23.546875 21.035156 C 23.546875 20.851562 23.546875 20.671875 23.546875 20.492188 C 23.546875 20.140625 23.546875 19.789062 23.546875 19.441406 C 23.542969 19.035156 23.542969 18.628906 23.542969 18.222656 C 23.542969 17.152344 23.542969 16.082031 23.542969 15.011719 C 23.539062 12.621094 23.539062 10.226562 23.535156 7.765625 C 16.25 7.765625 8.96875 7.765625 1.464844 7.765625 Z M 1.464844 7.765625 "/>
<path style=" stroke:none;fill-rule:nonzero;fill:rgb(0%,0%,0%);fill-opacity:1;" d="M 11.078125 16.445312 C 11.109375 16.445312 11.144531 16.445312 11.179688 16.445312 C 11.292969 16.445312 11.402344 16.445312 11.515625 16.445312 C 11.59375 16.445312 11.671875 16.445312 11.75 16.445312 C 11.914062 16.445312 12.074219 16.445312 12.238281 16.441406 C 12.449219 16.441406 12.65625 16.441406 12.867188 16.441406 C 13.027344 16.441406 13.1875 16.4375 13.347656 16.4375 C 13.425781 16.4375 13.503906 16.4375 13.582031 16.4375 C 13.6875 16.4375 13.796875 16.4375 13.902344 16.4375 C 13.964844 16.4375 14.027344 16.4375 14.089844 16.4375 C 14.304688 16.460938 14.46875 16.527344 14.632812 16.671875 C 14.832031 16.929688 14.851562 17.09375 14.851562 17.414062 C 14.851562 17.464844 14.851562 17.464844 14.851562 17.515625 C 14.851562 17.621094 14.851562 17.726562 14.855469 17.832031 C 14.855469 17.910156 14.855469 17.984375 14.855469 18.058594 C 14.855469 18.214844 14.855469 18.371094 14.855469 18.523438 C 14.855469 18.722656 14.855469 18.925781 14.859375 19.125 C 14.859375 19.277344 14.859375 19.429688 14.859375 19.585938 C 14.859375 19.65625 14.859375 19.730469 14.859375 19.804688 C 14.863281 19.90625 14.863281 20.011719 14.859375 20.113281 C 14.863281 20.203125 14.863281 20.203125 14.863281 20.292969 C 14.835938 20.515625 14.773438 20.710938 14.621094 20.886719 C 14.378906 21.066406 14.273438 21.101562 13.96875 21.101562 C 13.917969 21.101562 13.917969 21.101562 13.863281 21.101562 C 13.746094 21.105469 13.632812 21.105469 13.515625 21.105469 C 13.476562 21.105469 13.4375 21.105469 13.398438 21.105469 C 13.1875 21.105469 12.980469 21.109375 12.773438 21.109375 C 12.554688 21.109375 12.339844 21.109375 12.125 21.113281 C 11.960938 21.113281 11.792969 21.113281 11.628906 21.113281 C 11.550781 21.113281 11.46875 21.113281 11.390625 21.117188 C 11.277344 21.117188 11.167969 21.117188 11.058594 21.117188 C 10.992188 21.117188 10.929688 21.117188 10.863281 21.117188 C 10.609375 21.082031 10.460938 20.964844 10.289062 20.777344 C 10.144531 20.566406 10.148438 20.382812 10.148438 20.132812 C 10.148438 20.101562 10.148438 20.066406 10.148438 20.035156 C 10.148438 19.929688 10.148438 19.820312 10.144531 19.714844 C 10.144531 19.640625 10.144531 19.566406 10.144531 19.492188 C 10.144531 19.335938 10.144531 19.179688 10.144531 19.023438 C 10.144531 18.824219 10.144531 18.625 10.140625 18.425781 C 10.140625 18.273438 10.140625 18.117188 10.140625 17.964844 C 10.140625 17.890625 10.140625 17.816406 10.140625 17.742188 C 10.136719 17.640625 10.136719 17.539062 10.140625 17.433594 C 10.136719 17.375 10.136719 17.316406 10.136719 17.257812 C 10.164062 17.03125 10.226562 16.835938 10.375 16.664062 C 10.621094 16.480469 10.773438 16.449219 11.078125 16.445312 Z M 11.667969 17.96875 C 11.667969 18.5 11.667969 19.03125 11.667969 19.578125 C 12.21875 19.578125 12.765625 19.578125 13.328125 19.578125 C 13.328125 19.046875 13.328125 18.515625 13.328125 17.96875 C 12.78125 17.96875 12.234375 17.96875 11.667969 17.96875 Z M 11.667969 17.96875 "/>
<path style=" stroke:none;fill-rule:nonzero;fill:rgb(0%,0%,0%);fill-opacity:1;" d="M 17.804688 10.148438 C 17.855469 10.148438 17.855469 10.148438 17.90625 10.148438 C 18.011719 10.148438 18.117188 10.148438 18.222656 10.144531 C 18.300781 10.144531 18.375 10.144531 18.449219 10.144531 C 18.605469 10.144531 18.761719 10.144531 18.914062 10.144531 C 19.113281 10.144531 19.316406 10.144531 19.515625 10.140625 C 19.667969 10.140625 19.820312 10.140625 19.976562 10.140625 C 20.046875 10.140625 20.121094 10.140625 20.195312 10.140625 C 20.296875 10.136719 20.402344 10.136719 20.503906 10.140625 C 20.5625 10.136719 20.621094 10.136719 20.683594 10.136719 C 20.90625 10.164062 21.101562 10.226562 21.277344 10.378906 C 21.457031 10.621094 21.492188 10.726562 21.492188 11.03125 C 21.492188 11.066406 21.492188 11.101562 21.492188 11.136719 C 21.496094 11.253906 21.496094 11.367188 21.496094 11.484375 C 21.496094 11.523438 21.496094 11.5625 21.496094 11.601562 C 21.496094 11.8125 21.5 12.019531 21.5 12.226562 C 21.5 12.445312 21.5 12.660156 21.503906 12.875 C 21.503906 13.039062 21.503906 13.207031 21.503906 13.371094 C 21.503906 13.449219 21.503906 13.53125 21.507812 13.609375 C 21.507812 13.722656 21.507812 13.832031 21.507812 13.941406 C 21.507812 14.007812 21.507812 14.070312 21.507812 14.136719 C 21.472656 14.390625 21.355469 14.539062 21.167969 14.710938 C 20.957031 14.855469 20.773438 14.851562 20.523438 14.851562 C 20.492188 14.851562 20.457031 14.851562 20.425781 14.851562 C 20.320312 14.851562 20.210938 14.851562 20.105469 14.855469 C 20.03125 14.855469 19.957031 14.855469 19.882812 14.855469 C 19.726562 14.855469 19.570312 14.855469 19.414062 14.855469 C 19.214844 14.855469 19.015625 14.855469 18.816406 14.859375 C 18.664062 14.859375 18.507812 14.859375 18.355469 14.859375 C 18.28125 14.859375 18.207031 14.859375 18.132812 14.859375 C 18.03125 14.863281 17.929688 14.863281 17.824219 14.859375 C 17.738281 14.863281 17.738281 14.863281 17.648438 14.863281 C 17.421875 14.835938 17.226562 14.773438 17.054688 14.625 C 16.871094 14.378906 16.839844 14.226562 16.835938 13.921875 C 16.835938 13.890625 16.835938 13.855469 16.835938 13.820312 C 16.835938 13.707031 16.835938 13.597656 16.835938 13.484375 C 16.835938 13.40625 16.835938 13.328125 16.835938 13.25 C 16.835938 13.085938 16.835938 12.925781 16.832031 12.761719 C 16.832031 12.550781 16.832031 12.34375 16.832031 12.132812 C 16.832031 11.972656 16.828125 11.8125 16.828125 11.652344 C 16.828125 11.574219 16.828125 11.496094 16.828125 11.417969 C 16.828125 11.3125 16.828125 11.203125 16.828125 11.097656 C 16.828125 11.035156 16.828125 10.972656 16.828125 10.910156 C 16.851562 10.695312 16.917969 10.53125 17.0625 10.367188 C 17.320312 10.167969 17.484375 10.148438 17.804688 10.148438 Z M 18.359375 11.667969 C 18.359375 12.21875 18.359375 12.765625 18.359375 13.328125 C 18.890625 13.328125 19.421875 13.328125 19.972656 13.328125 C 19.972656 12.78125 19.972656 12.234375 19.972656 11.667969 C 19.4375 11.667969 18.90625 11.667969 18.359375 11.667969 Z M 18.359375 11.667969 "/>
<path style=" stroke:none;fill-rule:nonzero;fill:rgb(0%,0%,0%);fill-opacity:1;" d="M 4.476562 10.148438 C 4.523438 10.148438 4.523438 10.148438 4.574219 10.148438 C 4.679688 10.148438 4.789062 10.148438 4.894531 10.144531 C 4.96875 10.144531 5.042969 10.144531 5.117188 10.144531 C 5.273438 10.144531 5.429688 10.144531 5.585938 10.144531 C 5.785156 10.144531 5.984375 10.144531 6.183594 10.140625 C 6.335938 10.140625 6.492188 10.140625 6.644531 10.140625 C 6.71875 10.140625 6.792969 10.140625 6.867188 10.140625 C 6.96875 10.136719 7.070312 10.136719 7.175781 10.140625 C 7.234375 10.136719 7.292969 10.136719 7.351562 10.136719 C 7.578125 10.164062 7.773438 10.226562 7.945312 10.375 C 8.128906 10.621094 8.160156 10.773438 8.164062 11.078125 C 8.164062 11.128906 8.164062 11.128906 8.164062 11.179688 C 8.164062 11.292969 8.164062 11.402344 8.164062 11.515625 C 8.164062 11.59375 8.164062 11.671875 8.164062 11.75 C 8.164062 11.914062 8.164062 12.074219 8.167969 12.238281 C 8.167969 12.449219 8.167969 12.65625 8.167969 12.867188 C 8.167969 13.027344 8.171875 13.1875 8.171875 13.347656 C 8.171875 13.425781 8.171875 13.503906 8.171875 13.582031 C 8.171875 13.6875 8.171875 13.796875 8.171875 13.902344 C 8.171875 13.996094 8.171875 13.996094 8.171875 14.089844 C 8.148438 14.304688 8.082031 14.46875 7.9375 14.632812 C 7.679688 14.832031 7.515625 14.851562 7.195312 14.851562 C 7.160156 14.851562 7.128906 14.851562 7.09375 14.851562 C 6.988281 14.851562 6.882812 14.851562 6.777344 14.855469 C 6.699219 14.855469 6.625 14.855469 6.550781 14.855469 C 6.394531 14.855469 6.238281 14.855469 6.085938 14.855469 C 5.886719 14.855469 5.683594 14.855469 5.484375 14.859375 C 5.332031 14.859375 5.179688 14.859375 5.023438 14.859375 C 4.953125 14.859375 4.878906 14.859375 4.804688 14.859375 C 4.703125 14.863281 4.597656 14.863281 4.496094 14.859375 C 4.40625 14.863281 4.40625 14.863281 4.316406 14.863281 C 4.09375 14.835938 3.898438 14.773438 3.722656 14.621094 C 3.542969 14.378906 3.507812 14.273438 3.507812 13.96875 C 3.507812 13.933594 3.507812 13.898438 3.507812 13.863281 C 3.503906 13.746094 3.503906 13.632812 3.503906 13.515625 C 3.503906 13.476562 3.503906 13.4375 3.503906 13.398438 C 3.503906 13.1875 3.5 12.980469 3.5 12.773438 C 3.5 12.554688 3.5 12.339844 3.496094 12.125 C 3.496094 11.960938 3.496094 11.792969 3.496094 11.628906 C 3.496094 11.550781 3.496094 11.46875 3.492188 11.390625 C 3.492188 11.277344 3.492188 11.167969 3.492188 11.058594 C 3.492188 10.992188 3.492188 10.929688 3.492188 10.863281 C 3.527344 10.609375 3.644531 10.460938 3.832031 10.289062 C 4.042969 10.144531 4.226562 10.148438 4.476562 10.148438 Z M 5.03125 11.667969 C 5.03125 12.21875 5.03125 12.765625 5.03125 13.328125 C 5.5625 13.328125 6.09375 13.328125 6.640625 13.328125 C 6.640625 12.78125 6.640625 12.234375 6.640625 11.667969 C 6.109375 11.667969 5.578125 11.667969 5.03125 11.667969 Z M 5.03125 11.667969 "/>
<path style=" stroke:none;fill-rule:nonzero;fill:rgb(0%,0%,0%);fill-opacity:1;" d="M 17.746094 16.429688 C 17.777344 16.429688 17.8125 16.429688 17.847656 16.429688 C 17.960938 16.429688 18.074219 16.429688 18.1875 16.429688 C 18.265625 16.429688 18.34375 16.429688 18.421875 16.429688 C 18.585938 16.429688 18.75 16.429688 18.914062 16.433594 C 19.125 16.433594 19.335938 16.433594 19.546875 16.433594 C 19.710938 16.433594 19.871094 16.433594 20.035156 16.433594 C 20.113281 16.433594 20.1875 16.433594 20.265625 16.433594 C 20.375 16.433594 20.484375 16.433594 20.59375 16.433594 C 20.683594 16.4375 20.683594 16.4375 20.777344 16.4375 C 21.027344 16.464844 21.183594 16.542969 21.351562 16.722656 C 21.492188 16.929688 21.492188 17.089844 21.492188 17.332031 C 21.492188 17.382812 21.492188 17.382812 21.492188 17.433594 C 21.492188 17.550781 21.492188 17.664062 21.496094 17.777344 C 21.496094 17.855469 21.496094 17.933594 21.496094 18.011719 C 21.496094 18.179688 21.496094 18.34375 21.496094 18.511719 C 21.496094 18.722656 21.496094 18.933594 21.5 19.144531 C 21.5 19.308594 21.5 19.472656 21.5 19.636719 C 21.5 19.714844 21.5 19.792969 21.5 19.871094 C 21.503906 19.980469 21.503906 20.089844 21.5 20.199219 C 21.503906 20.292969 21.503906 20.292969 21.503906 20.386719 C 21.476562 20.636719 21.398438 20.792969 21.214844 20.960938 C 21.011719 21.101562 20.851562 21.101562 20.609375 21.101562 C 20.554688 21.101562 20.554688 21.101562 20.503906 21.101562 C 20.390625 21.101562 20.277344 21.101562 20.164062 21.105469 C 20.085938 21.105469 20.003906 21.105469 19.925781 21.105469 C 19.761719 21.105469 19.59375 21.105469 19.429688 21.105469 C 19.21875 21.105469 19.003906 21.105469 18.792969 21.109375 C 18.628906 21.109375 18.46875 21.109375 18.304688 21.109375 C 18.226562 21.109375 18.148438 21.109375 18.070312 21.109375 C 17.960938 21.113281 17.851562 21.113281 17.742188 21.109375 C 17.648438 21.113281 17.648438 21.113281 17.550781 21.113281 C 17.304688 21.085938 17.144531 21.007812 16.976562 20.824219 C 16.839844 20.621094 16.839844 20.460938 16.835938 20.21875 C 16.835938 20.183594 16.835938 20.148438 16.835938 20.113281 C 16.835938 20 16.835938 19.886719 16.835938 19.773438 C 16.832031 19.734375 16.832031 19.695312 16.832031 19.65625 C 16.832031 19.453125 16.832031 19.246094 16.832031 19.042969 C 16.832031 18.828125 16.828125 18.617188 16.828125 18.40625 C 16.824219 18.242188 16.824219 18.082031 16.824219 17.917969 C 16.824219 17.839844 16.824219 17.761719 16.824219 17.683594 C 16.824219 17.574219 16.824219 17.464844 16.824219 17.355469 C 16.824219 17.292969 16.820312 17.230469 16.820312 17.167969 C 16.855469 16.925781 16.925781 16.746094 17.117188 16.585938 C 17.324219 16.457031 17.5 16.429688 17.746094 16.429688 Z M 18.359375 17.96875 C 18.359375 18.5 18.359375 19.03125 18.359375 19.578125 C 18.890625 19.578125 19.421875 19.578125 19.96875 19.578125 C 19.96875 19.046875 19.96875 18.515625 19.96875 17.96875 C 19.4375 17.96875 18.90625 17.96875 18.359375 17.96875 Z M 18.359375 17.96875 "/>
<path style=" stroke:none;fill-rule:nonzero;fill:rgb(0%,0%,0%);fill-opacity:1;" d="M 4.390625 16.445312 C 4.441406 16.445312 4.441406 16.445312 4.496094 16.445312 C 4.609375 16.445312 4.722656 16.445312 4.835938 16.445312 C 4.875 16.441406 4.914062 16.441406 4.953125 16.441406 C 5.15625 16.441406 5.363281 16.441406 5.566406 16.441406 C 5.78125 16.441406 5.992188 16.4375 6.203125 16.4375 C 6.367188 16.433594 6.527344 16.433594 6.691406 16.433594 C 6.769531 16.433594 6.847656 16.433594 6.925781 16.433594 C 7.035156 16.433594 7.144531 16.433594 7.253906 16.433594 C 7.316406 16.433594 7.378906 16.429688 7.441406 16.429688 C 7.683594 16.464844 7.863281 16.535156 8.023438 16.726562 C 8.152344 16.933594 8.179688 17.109375 8.179688 17.351562 C 8.179688 17.386719 8.179688 17.421875 8.179688 17.457031 C 8.179688 17.570312 8.179688 17.679688 8.179688 17.792969 C 8.179688 17.871094 8.179688 17.949219 8.179688 18.027344 C 8.179688 18.195312 8.179688 18.359375 8.179688 18.523438 C 8.179688 18.730469 8.179688 18.941406 8.179688 19.152344 C 8.179688 19.3125 8.179688 19.476562 8.179688 19.636719 C 8.179688 19.714844 8.179688 19.792969 8.179688 19.871094 C 8.179688 19.980469 8.179688 20.085938 8.179688 20.195312 C 8.179688 20.257812 8.179688 20.320312 8.179688 20.382812 C 8.144531 20.625 8.070312 20.804688 7.882812 20.960938 C 7.675781 21.09375 7.5 21.117188 7.253906 21.117188 C 7.222656 21.117188 7.1875 21.117188 7.152344 21.117188 C 7.039062 21.121094 6.925781 21.117188 6.8125 21.117188 C 6.734375 21.117188 6.65625 21.117188 6.578125 21.117188 C 6.414062 21.117188 6.25 21.117188 6.085938 21.117188 C 5.875 21.113281 5.664062 21.117188 5.453125 21.117188 C 5.289062 21.117188 5.128906 21.117188 4.964844 21.117188 C 4.886719 21.113281 4.8125 21.113281 4.734375 21.113281 C 4.625 21.117188 4.515625 21.113281 4.40625 21.113281 C 4.316406 21.113281 4.316406 21.113281 4.222656 21.113281 C 3.972656 21.085938 3.816406 21.007812 3.648438 20.824219 C 3.507812 20.621094 3.507812 20.460938 3.507812 20.21875 C 3.507812 20.183594 3.507812 20.148438 3.507812 20.113281 C 3.507812 20 3.507812 19.886719 3.503906 19.773438 C 3.503906 19.695312 3.503906 19.613281 3.503906 19.535156 C 3.503906 19.371094 3.503906 19.203125 3.503906 19.039062 C 3.503906 18.828125 3.503906 18.613281 3.5 18.402344 C 3.5 18.238281 3.5 18.078125 3.5 17.914062 C 3.5 17.835938 3.5 17.757812 3.5 17.679688 C 3.496094 17.570312 3.496094 17.460938 3.5 17.351562 C 3.496094 17.289062 3.496094 17.226562 3.496094 17.160156 C 3.523438 16.914062 3.601562 16.753906 3.785156 16.585938 C 3.988281 16.449219 4.148438 16.449219 4.390625 16.445312 Z M 5.03125 17.96875 C 5.03125 18.5 5.03125 19.03125 5.03125 19.578125 C 5.5625 19.578125 6.09375 19.578125 6.640625 19.578125 C 6.640625 19.046875 6.640625 18.515625 6.640625 17.96875 C 6.109375 17.96875 5.578125 17.96875 5.03125 17.96875 Z M 5.03125 17.96875 "/>
<path style=" stroke:none;fill-rule:nonzero;fill:rgb(0%,0%,0%);fill-opacity:1;" d="M 14.40625 10.644531 C 14.617188 10.75 14.765625 10.882812 14.890625 11.085938 C 14.976562 11.375 14.929688 11.601562 14.796875 11.867188 C 14.632812 12.066406 14.449219 12.246094 14.265625 12.429688 C 14.214844 12.480469 14.160156 12.535156 14.105469 12.585938 C 13.996094 12.695312 13.886719 12.804688 13.773438 12.914062 C 13.632812 13.054688 13.492188 13.195312 13.351562 13.335938 C 13.242188 13.445312 13.132812 13.554688 13.023438 13.664062 C 12.972656 13.714844 12.917969 13.765625 12.867188 13.816406 C 12.792969 13.890625 12.722656 13.960938 12.648438 14.035156 C 12.585938 14.09375 12.585938 14.09375 12.523438 14.15625 C 12.34375 14.308594 12.175781 14.371094 11.945312 14.375 C 11.910156 14.375 11.875 14.375 11.839844 14.378906 C 11.539062 14.320312 11.304688 14.109375 11.09375 13.898438 C 11.066406 13.875 11.042969 13.851562 11.015625 13.824219 C 10.964844 13.773438 10.910156 13.722656 10.859375 13.667969 C 10.777344 13.589844 10.699219 13.511719 10.617188 13.433594 C 10.3125 13.132812 10.0625 12.867188 10.058594 12.417969 C 10.136719 12.101562 10.273438 11.949219 10.546875 11.765625 C 10.832031 11.722656 11.101562 11.714844 11.339844 11.890625 C 11.402344 11.945312 11.464844 12 11.523438 12.0625 C 11.558594 12.09375 11.597656 12.128906 11.632812 12.167969 C 11.730469 12.261719 11.820312 12.355469 11.914062 12.453125 C 12.0625 12.386719 12.164062 12.3125 12.277344 12.195312 C 12.308594 12.164062 12.339844 12.132812 12.371094 12.097656 C 12.40625 12.066406 12.4375 12.03125 12.472656 11.996094 C 12.507812 11.960938 12.542969 11.925781 12.582031 11.886719 C 12.691406 11.773438 12.804688 11.660156 12.914062 11.546875 C 13.0625 11.398438 13.207031 11.25 13.355469 11.101562 C 13.40625 11.050781 13.40625 11.050781 13.457031 10.996094 C 13.488281 10.964844 13.519531 10.933594 13.554688 10.898438 C 13.59375 10.859375 13.59375 10.859375 13.636719 10.8125 C 13.867188 10.613281 14.109375 10.605469 14.40625 10.644531 Z M 14.40625 10.644531 "/>
</g>
</svg>
