<?xml version="1.0" encoding="UTF-8"?>
<svg xmlns="http://www.w3.org/2000/svg" xmlns:xlink="http://www.w3.org/1999/xlink" width="22px" height="22px" viewBox="0 0 22 22" version="1.1">
<g id="surface1">
<path style=" stroke:none;fill-rule:nonzero;fill:rgb(3.921569%,3.921569%,3.921569%);fill-opacity:1;" d="M 14.40625 10.132812 C 14.253906 10.066406 14.101562 10.007812 13.945312 9.953125 C 15.015625 9.085938 15.699219 7.765625 15.699219 6.285156 C 15.699219 3.6875 13.585938 1.574219 10.984375 1.574219 C 8.386719 1.574219 6.269531 3.6875 6.269531 6.285156 C 6.269531 7.765625 6.957031 9.089844 8.027344 9.953125 C 4.714844 11.164062 2.34375 14.347656 2.34375 18.074219 L 3.914062 18.074219 C 3.914062 14.175781 7.085938 11.003906 10.984375 11.003906 C 11.957031 11.003906 12.898438 11.199219 13.78125 11.578125 Z M 10.984375 3.144531 C 12.71875 3.144531 14.128906 4.550781 14.128906 6.285156 C 14.128906 8.019531 12.71875 9.429688 10.984375 9.429688 C 9.25 9.429688 7.84375 8.019531 7.84375 6.285156 C 7.84375 4.554688 9.25 3.144531 10.984375 3.144531 Z M 13.160156 13.675781 C 13.160156 13.894531 13.28125 14.09375 13.472656 14.195312 L 16.222656 15.648438 C 16.308594 15.691406 16.402344 15.714844 16.496094 15.714844 C 16.59375 15.714844 16.6875 15.691406 16.773438 15.648438 L 19.523438 14.195312 C 19.714844 14.089844 19.835938 13.890625 19.835938 13.675781 C 19.835938 13.457031 19.714844 13.257812 19.523438 13.15625 L 16.773438 11.699219 C 16.601562 11.609375 16.394531 11.609375 16.222656 11.699219 L 13.472656 13.15625 C 13.28125 13.257812 13.160156 13.457031 13.160156 13.675781 Z M 16.496094 12.886719 L 17.988281 13.675781 L 16.496094 14.460938 L 15.007812 13.675781 Z M 16.496094 12.886719 "/>
<path style=" stroke:none;fill-rule:nonzero;fill:rgb(3.921569%,3.921569%,3.921569%);fill-opacity:1;" d="M 16.496094 16.402344 L 13.339844 14.730469 L 12.789062 15.773438 L 16.496094 17.734375 L 20.191406 15.78125 L 19.640625 14.742188 Z M 16.496094 16.402344 "/>
<path style=" stroke:none;fill-rule:nonzero;fill:rgb(3.921569%,3.921569%,3.921569%);fill-opacity:1;" d="M 16.496094 18.292969 L 13.339844 16.625 L 12.789062 17.664062 L 16.496094 19.625 L 20.179688 17.679688 L 19.628906 16.636719 Z M 16.496094 18.292969 "/>
</g>
</svg>
