<?xml version="1.0" encoding="UTF-8"?>
<svg xmlns="http://www.w3.org/2000/svg" xmlns:xlink="http://www.w3.org/1999/xlink" width="22px" height="22px" viewBox="0 0 22 22" version="1.1">
<g id="surface1">
<path style="fill-rule:nonzero;fill:rgb(10.196079%,37.254903%,67.843139%);fill-opacity:1;stroke-width:1;stroke-linecap:butt;stroke-linejoin:miter;stroke:rgb(38.039216%,56.078434%,76.47059%);stroke-opacity:1;stroke-miterlimit:4;" d="M 670.545455 471.636364 C 663.454545 468.545455 656.363636 465.818182 649.090909 463.272727 C 698.909091 422.909091 730.727273 361.454545 730.727273 292.545455 C 730.727273 171.636364 632.363636 73.272727 511.272727 73.272727 C 390.363636 73.272727 291.818182 171.636364 291.818182 292.545455 C 291.818182 361.454545 323.818182 423.090909 373.636364 463.272727 C 219.454545 519.636364 109.090909 667.818182 109.090909 841.272727 L 182.181818 841.272727 C 182.181818 659.818182 329.818182 512.181818 511.272727 512.181818 C 556.545455 512.181818 600.363636 521.272727 641.454545 538.909091 Z M 511.272727 146.363636 C 592 146.363636 657.636364 211.818182 657.636364 292.545455 C 657.636364 373.272727 592 438.909091 511.272727 438.909091 C 430.545455 438.909091 365.090909 373.272727 365.090909 292.545455 C 365.090909 212 430.545455 146.363636 511.272727 146.363636 Z M 612.545455 636.545455 C 612.545455 646.727273 618.181818 656 627.090909 660.727273 L 755.090909 728.363636 C 759.090909 730.363636 763.454545 731.454545 767.818182 731.454545 C 772.363636 731.454545 776.727273 730.363636 780.727273 728.363636 L 908.727273 660.727273 C 917.636364 655.818182 923.272727 646.545455 923.272727 636.545455 C 923.272727 626.363636 917.636364 617.090909 908.727273 612.363636 L 780.727273 544.545455 C 772.727273 540.363636 763.090909 540.363636 755.090909 544.545455 L 627.090909 612.363636 C 618.181818 617.090909 612.545455 626.363636 612.545455 636.545455 Z M 767.818182 599.818182 L 837.272727 636.545455 L 767.818182 673.090909 L 698.545455 636.545455 Z M 767.818182 599.818182 " transform="matrix(0.0214844,0,0,0.0214844,0,0)"/>
<path style="fill-rule:nonzero;fill:rgb(10.196079%,37.254903%,67.843139%);fill-opacity:1;stroke-width:1;stroke-linecap:butt;stroke-linejoin:miter;stroke:rgb(38.039216%,56.078434%,76.47059%);stroke-opacity:1;stroke-miterlimit:4;" d="M 767.818182 763.454545 L 620.909091 685.636364 L 595.272727 734.181818 L 767.818182 825.454545 L 939.818182 734.545455 L 914.181818 686.181818 Z M 767.818182 763.454545 " transform="matrix(0.0214844,0,0,0.0214844,0,0)"/>
<path style="fill-rule:nonzero;fill:rgb(10.196079%,37.254903%,67.843139%);fill-opacity:1;stroke-width:1;stroke-linecap:butt;stroke-linejoin:miter;stroke:rgb(38.039216%,56.078434%,76.47059%);stroke-opacity:1;stroke-miterlimit:4;" d="M 767.818182 851.454545 L 620.909091 773.818182 L 595.272727 822.181818 L 767.818182 913.454545 L 939.272727 822.909091 L 913.636364 774.363636 Z M 767.818182 851.454545 " transform="matrix(0.0214844,0,0,0.0214844,0,0)"/>
</g>
</svg>
