<?xml version="1.0" encoding="UTF-8"?>
<svg xmlns="http://www.w3.org/2000/svg" xmlns:xlink="http://www.w3.org/1999/xlink" width="35px" height="35px" viewBox="0 0 35 35" version="1.1">
<g id="surface1">
<path style=" stroke:none;fill-rule:nonzero;fill:rgb(0%,0%,0%);fill-opacity:1;" d="M 19.210938 15.039062 C 19.28125 15.070312 19.355469 15.105469 19.429688 15.136719 C 20.558594 15.691406 21.300781 16.597656 21.738281 17.773438 C 22.085938 18.898438 21.953125 20.191406 21.425781 21.230469 C 21.164062 21.71875 20.832031 22.101562 20.4375 22.492188 C 20.375 22.554688 20.3125 22.617188 20.246094 22.683594 C 20.171875 22.757812 20.171875 22.757812 20.097656 22.832031 C 20.152344 22.839844 20.210938 22.84375 20.269531 22.851562 C 20.554688 22.910156 20.792969 23.011719 21.054688 23.136719 C 21.105469 23.160156 21.15625 23.183594 21.207031 23.207031 C 22.003906 23.597656 22.671875 24.136719 23.3125 24.746094 C 23.355469 24.789062 23.402344 24.828125 23.449219 24.871094 C 24.492188 25.851562 25.515625 27.597656 25.574219 29.054688 C 25.570312 29.097656 25.570312 29.144531 25.566406 29.1875 C 25.878906 28.992188 26.140625 28.777344 26.398438 28.515625 C 26.4375 28.476562 26.476562 28.4375 26.515625 28.398438 C 28.714844 26.136719 29.980469 23.007812 29.957031 19.863281 C 29.953125 19.695312 29.953125 19.527344 29.953125 19.359375 C 29.953125 19.25 29.953125 19.140625 29.953125 19.03125 C 29.953125 18.957031 29.953125 18.957031 29.953125 18.878906 C 29.949219 18.550781 29.917969 18.234375 29.875 17.910156 C 29.824219 17.316406 29.824219 17.316406 29.972656 17.046875 C 30.226562 16.910156 30.480469 16.894531 30.761719 16.953125 C 30.972656 17.101562 31.011719 17.273438 31.054688 17.519531 C 31.0625 17.570312 31.074219 17.617188 31.082031 17.667969 C 31.089844 17.71875 31.097656 17.769531 31.105469 17.824219 C 31.203125 18.4375 31.203125 19.054688 31.199219 19.675781 C 31.195312 19.765625 31.195312 19.765625 31.195312 19.855469 C 31.191406 20.726562 31.160156 21.570312 30.96875 22.421875 C 30.953125 22.476562 30.941406 22.53125 30.929688 22.585938 C 30.417969 24.953125 29.332031 27.117188 27.691406 28.898438 C 27.558594 29.042969 27.433594 29.1875 27.304688 29.339844 C 27.066406 29.613281 26.804688 29.847656 26.523438 30.078125 C 26.488281 30.105469 26.457031 30.136719 26.421875 30.164062 C 24.683594 31.644531 22.628906 32.636719 20.402344 33.125 C 20.324219 33.140625 20.324219 33.140625 20.246094 33.160156 C 19.898438 33.230469 19.53125 33.273438 19.21875 33.074219 C 19.070312 32.839844 19.054688 32.625 19.105469 32.355469 C 19.351562 31.976562 19.945312 31.925781 20.363281 31.835938 C 21.816406 31.5 23.25 30.941406 24.472656 30.078125 C 24.398438 28.296875 23.523438 26.601562 22.238281 25.386719 C 20.8125 24.152344 18.976562 23.496094 17.085938 23.597656 C 15.570312 23.714844 14.152344 24.234375 12.988281 25.226562 C 12.929688 25.273438 12.871094 25.320312 12.8125 25.367188 C 11.539062 26.445312 10.714844 28.082031 10.527344 29.734375 C 10.515625 29.792969 10.507812 29.851562 10.496094 29.910156 C 10.511719 30.097656 10.511719 30.097656 10.707031 30.222656 C 10.789062 30.273438 10.875 30.320312 10.957031 30.367188 C 11.003906 30.394531 11.050781 30.421875 11.097656 30.449219 C 12.367188 31.160156 13.660156 31.660156 15.089844 31.9375 C 15.664062 32.054688 15.664062 32.054688 15.859375 32.335938 C 15.9375 32.578125 15.949219 32.695312 15.847656 32.933594 C 15.714844 33.09375 15.640625 33.148438 15.449219 33.222656 C 12.773438 33.304688 9.855469 31.359375 7.96875 29.621094 C 7.910156 29.570312 7.910156 29.570312 7.851562 29.515625 C 6.964844 28.679688 6.203125 27.652344 5.605469 26.59375 C 5.582031 26.550781 5.558594 26.507812 5.53125 26.464844 C 4.5 24.660156 3.824219 22.527344 3.8125 20.4375 C 3.8125 20.378906 3.8125 20.324219 3.8125 20.265625 C 3.8125 20.144531 3.8125 20.023438 3.8125 19.902344 C 3.8125 19.722656 3.808594 19.542969 3.808594 19.363281 C 3.804688 18.789062 3.824219 18.230469 3.917969 17.664062 C 3.925781 17.617188 3.933594 17.566406 3.941406 17.519531 C 3.988281 17.273438 4.027344 17.097656 4.238281 16.953125 C 4.519531 16.894531 4.773438 16.910156 5.027344 17.046875 C 5.21875 17.394531 5.144531 17.78125 5.09375 18.160156 C 5.054688 18.445312 5.046875 18.730469 5.042969 19.019531 C 5.042969 19.070312 5.042969 19.121094 5.042969 19.175781 C 5.023438 20.742188 5.023438 20.742188 5.265625 22.285156 C 5.277344 22.34375 5.289062 22.402344 5.304688 22.460938 C 5.898438 24.976562 7.21875 27.328125 9.160156 29.054688 C 9.308594 29.140625 9.308594 29.140625 9.433594 29.1875 C 9.433594 29.152344 9.433594 29.113281 9.4375 29.074219 C 9.535156 27.425781 10.582031 25.898438 11.6875 24.746094 C 11.730469 24.703125 11.769531 24.65625 11.808594 24.613281 C 12.472656 23.898438 13.34375 23.433594 14.21875 23.039062 C 14.261719 23.015625 14.304688 22.996094 14.351562 22.976562 C 14.546875 22.886719 14.683594 22.832031 14.902344 22.832031 C 14.851562 22.78125 14.804688 22.734375 14.753906 22.683594 C 14.6875 22.617188 14.625 22.554688 14.5625 22.492188 C 14.507812 22.4375 14.453125 22.382812 14.398438 22.328125 C 13.535156 21.433594 13.082031 20.398438 13.09375 19.148438 C 13.09375 19.078125 13.097656 19.003906 13.097656 18.929688 C 13.109375 18.382812 13.167969 17.933594 13.398438 17.429688 C 13.429688 17.359375 13.464844 17.285156 13.496094 17.210938 C 14.050781 16.082031 14.957031 15.339844 16.132812 14.902344 C 17.085938 14.609375 18.296875 14.621094 19.210938 15.039062 Z M 15.011719 17.027344 C 14.339844 17.84375 14.1875 18.726562 14.289062 19.757812 C 14.445312 20.601562 14.976562 21.351562 15.675781 21.851562 C 16.5 22.378906 17.394531 22.488281 18.351562 22.308594 C 19.242188 22.042969 19.96875 21.421875 20.417969 20.617188 C 20.804688 19.847656 20.851562 18.90625 20.605469 18.082031 C 20.269531 17.21875 19.628906 16.53125 18.796875 16.132812 C 18.378906 15.960938 18 15.890625 17.546875 15.898438 C 17.460938 15.898438 17.460938 15.898438 17.375 15.898438 C 16.421875 15.925781 15.664062 16.335938 15.011719 17.027344 Z M 15.011719 17.027344 "/>
<path style=" stroke:none;fill-rule:nonzero;fill:rgb(0%,0%,0%);fill-opacity:1;" d="M 17.632812 1.609375 C 17.84375 1.65625 17.90625 1.75 18.046875 1.914062 C 18.175781 2.136719 18.289062 2.363281 18.402344 2.59375 C 18.4375 2.660156 18.46875 2.726562 18.503906 2.792969 C 18.570312 2.933594 18.640625 3.074219 18.710938 3.210938 C 18.816406 3.425781 18.921875 3.640625 19.03125 3.855469 C 19.097656 3.988281 19.164062 4.125 19.230469 4.261719 C 19.261719 4.324219 19.296875 4.386719 19.328125 4.453125 C 19.359375 4.515625 19.386719 4.574219 19.417969 4.632812 C 19.441406 4.6875 19.46875 4.738281 19.496094 4.792969 C 19.550781 4.921875 19.550781 4.921875 19.550781 5.058594 C 19.59375 5.0625 19.632812 5.070312 19.675781 5.074219 C 20.113281 5.132812 20.550781 5.191406 20.984375 5.25 C 21.148438 5.273438 21.308594 5.296875 21.472656 5.316406 C 21.707031 5.347656 21.941406 5.378906 22.175781 5.414062 C 22.246094 5.421875 22.320312 5.429688 22.394531 5.441406 C 22.777344 5.496094 23.105469 5.558594 23.445312 5.742188 C 23.558594 5.96875 23.566406 6.183594 23.515625 6.425781 C 23.382812 6.636719 23.214844 6.800781 23.039062 6.972656 C 22.988281 7.023438 22.9375 7.074219 22.886719 7.128906 C 22.65625 7.363281 22.421875 7.589844 22.167969 7.804688 C 22.128906 7.847656 22.085938 7.886719 22.039062 7.929688 C 21.898438 8.046875 21.769531 8.128906 21.613281 8.21875 C 21.285156 8.4375 21.042969 8.640625 20.917969 9.023438 C 20.871094 9.769531 21.097656 10.546875 21.261719 11.265625 C 21.570312 12.601562 21.570312 12.601562 21.355469 12.976562 C 21.152344 13.160156 21.050781 13.179688 20.78125 13.195312 C 20.578125 13.117188 20.578125 13.117188 20.339844 12.992188 C 20.296875 12.96875 20.253906 12.945312 20.207031 12.921875 C 19.992188 12.8125 19.78125 12.695312 19.566406 12.582031 C 19.289062 12.429688 19.007812 12.28125 18.730469 12.132812 C 18.585938 12.058594 18.445312 11.980469 18.300781 11.902344 C 18.214844 11.855469 18.125 11.808594 18.035156 11.757812 C 17.992188 11.738281 17.953125 11.714844 17.910156 11.691406 C 17.699219 11.582031 17.589844 11.546875 17.359375 11.597656 C 17.164062 11.6875 16.972656 11.777344 16.785156 11.875 C 16.714844 11.914062 16.644531 11.949219 16.574219 11.988281 C 16.464844 12.042969 16.464844 12.042969 16.351562 12.105469 C 16.238281 12.164062 16.238281 12.164062 16.121094 12.222656 C 15.777344 12.402344 15.433594 12.585938 15.09375 12.777344 C 15.042969 12.804688 14.992188 12.832031 14.9375 12.863281 C 14.84375 12.917969 14.75 12.96875 14.65625 13.027344 C 14.347656 13.195312 14.148438 13.214844 13.808594 13.125 C 13.636719 13 13.636719 13 13.535156 12.785156 C 13.515625 11.972656 13.746094 11.125 13.890625 10.332031 C 13.925781 10.144531 13.960938 9.957031 13.992188 9.769531 C 14.003906 9.714844 14.015625 9.65625 14.027344 9.597656 C 14.035156 9.542969 14.046875 9.492188 14.054688 9.433594 C 14.0625 9.390625 14.070312 9.34375 14.082031 9.292969 C 14.082031 9.0625 13.972656 8.921875 13.824219 8.75 C 13.753906 8.679688 13.753906 8.679688 13.683594 8.609375 C 13.628906 8.554688 13.578125 8.503906 13.523438 8.449219 C 13.46875 8.394531 13.414062 8.339844 13.355469 8.285156 C 13.300781 8.230469 13.25 8.175781 13.195312 8.121094 C 12.902344 7.832031 12.601562 7.550781 12.289062 7.28125 C 12.128906 7.144531 11.980469 7 11.832031 6.847656 C 11.777344 6.796875 11.726562 6.746094 11.675781 6.695312 C 11.472656 6.476562 11.472656 6.3125 11.457031 6.019531 C 11.5 5.796875 11.570312 5.738281 11.757812 5.605469 C 12.003906 5.535156 12.253906 5.503906 12.503906 5.46875 C 12.617188 5.453125 12.617188 5.453125 12.730469 5.4375 C 12.976562 5.398438 13.222656 5.367188 13.46875 5.332031 C 13.558594 5.320312 13.648438 5.304688 13.742188 5.292969 C 14.308594 5.214844 14.878906 5.136719 15.449219 5.058594 C 15.464844 5.003906 15.480469 4.949219 15.496094 4.894531 C 15.609375 4.578125 15.757812 4.285156 15.90625 3.984375 C 15.9375 3.921875 15.96875 3.859375 16 3.792969 C 16.066406 3.664062 16.132812 3.53125 16.199219 3.398438 C 16.300781 3.195312 16.398438 2.992188 16.5 2.789062 C 16.5625 2.660156 16.628906 2.53125 16.691406 2.40625 C 16.738281 2.3125 16.738281 2.3125 16.78125 2.21875 C 16.8125 2.164062 16.839844 2.109375 16.867188 2.050781 C 16.894531 2 16.917969 1.949219 16.941406 1.898438 C 17.117188 1.625 17.332031 1.621094 17.632812 1.609375 Z M 17.5 3.554688 C 17.484375 3.589844 17.464844 3.621094 17.445312 3.65625 C 17.421875 3.703125 17.398438 3.75 17.371094 3.796875 C 17.34375 3.851562 17.316406 3.902344 17.289062 3.957031 C 17.226562 4.074219 17.164062 4.191406 17.105469 4.308594 C 16.949219 4.601562 16.792969 4.898438 16.644531 5.195312 C 16.617188 5.246094 16.589844 5.300781 16.5625 5.355469 C 16.511719 5.453125 16.460938 5.554688 16.410156 5.65625 C 16.277344 5.914062 16.199219 6.050781 15.929688 6.152344 C 15.746094 6.183594 15.566406 6.210938 15.386719 6.234375 C 15.304688 6.246094 15.304688 6.246094 15.226562 6.257812 C 15.003906 6.289062 14.78125 6.316406 14.558594 6.34375 C 14.394531 6.367188 14.230469 6.390625 14.070312 6.410156 C 13.992188 6.421875 13.992188 6.421875 13.917969 6.429688 C 13.675781 6.460938 13.535156 6.492188 13.328125 6.632812 C 13.546875 6.851562 13.765625 7.070312 13.984375 7.289062 C 14.046875 7.351562 14.105469 7.414062 14.167969 7.476562 C 14.429688 7.738281 14.691406 8 14.976562 8.238281 C 15.238281 8.460938 15.238281 8.460938 15.257812 8.6875 C 15.265625 9.246094 15.175781 9.773438 15.074219 10.320312 C 15.039062 10.5 15.007812 10.675781 14.976562 10.851562 C 14.960938 10.929688 14.949219 11.007812 14.933594 11.085938 C 14.898438 11.28125 14.898438 11.28125 14.902344 11.484375 C 15.324219 11.371094 15.6875 11.152344 16.0625 10.941406 C 16.257812 10.832031 16.453125 10.726562 16.648438 10.617188 C 16.78125 10.546875 16.90625 10.472656 17.035156 10.398438 C 17.378906 10.261719 17.671875 10.285156 18.011719 10.414062 C 18.089844 10.457031 18.167969 10.5 18.25 10.542969 C 18.3125 10.574219 18.3125 10.574219 18.378906 10.609375 C 18.511719 10.679688 18.644531 10.753906 18.777344 10.828125 C 18.910156 10.898438 19.046875 10.96875 19.179688 11.042969 C 19.300781 11.105469 19.421875 11.171875 19.542969 11.238281 C 19.726562 11.332031 19.90625 11.414062 20.097656 11.484375 C 20.035156 10.988281 19.972656 10.5 19.878906 10.007812 C 19.640625 8.757812 19.640625 8.757812 19.828125 8.410156 C 19.933594 8.28125 20.042969 8.175781 20.164062 8.066406 C 20.203125 8.03125 20.242188 8 20.28125 7.964844 C 20.367188 7.890625 20.453125 7.816406 20.542969 7.742188 C 20.933594 7.390625 21.300781 7.007812 21.671875 6.632812 C 21.425781 6.46875 21.214844 6.449219 20.933594 6.414062 C 20.828125 6.398438 20.71875 6.386719 20.613281 6.371094 C 20.445312 6.347656 20.277344 6.328125 20.109375 6.304688 C 19.945312 6.285156 19.785156 6.265625 19.621094 6.242188 C 19.546875 6.234375 19.546875 6.234375 19.46875 6.222656 C 19.179688 6.183594 18.957031 6.136719 18.730469 5.945312 C 18.628906 5.78125 18.542969 5.628906 18.460938 5.457031 C 18.4375 5.40625 18.414062 5.359375 18.390625 5.3125 C 18.316406 5.160156 18.242188 5.007812 18.171875 4.851562 C 18.097656 4.699219 18.023438 4.546875 17.949219 4.394531 C 17.902344 4.300781 17.855469 4.207031 17.808594 4.109375 C 17.714844 3.914062 17.621094 3.734375 17.5 3.554688 Z M 17.5 3.554688 "/>
<path style=" stroke:none;fill-rule:nonzero;fill:rgb(0%,0%,0%);fill-opacity:1;" d="M 27.476562 5.984375 C 27.683594 6.03125 27.753906 6.128906 27.890625 6.289062 C 27.996094 6.460938 28.082031 6.640625 28.171875 6.820312 C 28.210938 6.894531 28.210938 6.894531 28.25 6.972656 C 28.300781 7.082031 28.355469 7.1875 28.40625 7.296875 C 28.488281 7.460938 28.570312 7.625 28.652344 7.789062 C 28.703125 7.894531 28.757812 7.996094 28.808594 8.101562 C 28.832031 8.152344 28.855469 8.199219 28.882812 8.25 C 29.054688 8.597656 29.054688 8.597656 29.054688 8.75 C 29.136719 8.761719 29.222656 8.773438 29.3125 8.785156 C 29.628906 8.824219 29.945312 8.867188 30.261719 8.910156 C 30.398438 8.929688 30.535156 8.945312 30.671875 8.964844 C 30.867188 8.988281 31.066406 9.015625 31.261719 9.042969 C 31.355469 9.054688 31.355469 9.054688 31.449219 9.066406 C 32.046875 9.152344 32.046875 9.152344 32.265625 9.433594 C 32.324219 9.652344 32.324219 9.832031 32.265625 10.046875 C 32.136719 10.226562 31.976562 10.34375 31.800781 10.472656 C 31.707031 10.550781 31.609375 10.628906 31.515625 10.707031 C 31.464844 10.75 31.417969 10.789062 31.367188 10.832031 C 30.546875 11.496094 30.546875 11.496094 30.15625 12.425781 C 30.15625 13.023438 30.316406 13.617188 30.511719 14.175781 C 30.625 14.503906 30.652344 14.761719 30.625 15.109375 C 30.484375 15.3125 30.484375 15.3125 30.28125 15.449219 C 29.875 15.496094 29.625 15.390625 29.277344 15.199219 C 29.226562 15.171875 29.179688 15.144531 29.128906 15.121094 C 28.976562 15.039062 28.820312 14.957031 28.667969 14.871094 C 28.515625 14.789062 28.359375 14.707031 28.207031 14.625 C 28.109375 14.574219 28.015625 14.523438 27.917969 14.472656 C 27.578125 14.289062 27.578125 14.289062 27.207031 14.21875 C 27.039062 14.277344 27.039062 14.277344 26.875 14.378906 C 26.8125 14.414062 26.75 14.449219 26.683594 14.484375 C 26.585938 14.539062 26.585938 14.539062 26.484375 14.597656 C 26.347656 14.675781 26.214844 14.75 26.078125 14.828125 C 26.015625 14.863281 25.949219 14.898438 25.882812 14.9375 C 24.8125 15.542969 24.8125 15.542969 24.40625 15.449219 C 24.203125 15.3125 24.203125 15.3125 24.0625 15.109375 C 24.03125 14.714844 24.09375 14.414062 24.222656 14.039062 C 24.566406 12.992188 24.566406 12.992188 24.394531 11.945312 C 24.0625 11.460938 23.621094 11.078125 23.171875 10.707031 C 23.125 10.667969 23.074219 10.628906 23.027344 10.585938 C 22.933594 10.511719 22.839844 10.4375 22.746094 10.367188 C 22.5625 10.222656 22.441406 10.125 22.382812 9.894531 C 22.363281 9.625 22.386719 9.480469 22.550781 9.265625 C 22.839844 9.121094 23.109375 9.082031 23.425781 9.042969 C 23.519531 9.03125 23.519531 9.03125 23.617188 9.015625 C 23.816406 8.988281 24.019531 8.964844 24.21875 8.9375 C 24.355469 8.917969 24.492188 8.902344 24.632812 8.882812 C 24.964844 8.835938 25.300781 8.792969 25.632812 8.75 C 25.660156 8.664062 25.660156 8.664062 25.6875 8.578125 C 25.78125 8.316406 25.894531 8.074219 26.015625 7.824219 C 26.039062 7.777344 26.0625 7.730469 26.089844 7.683594 C 26.136719 7.582031 26.1875 7.480469 26.238281 7.382812 C 26.3125 7.230469 26.390625 7.074219 26.464844 6.921875 C 26.511719 6.824219 26.5625 6.726562 26.609375 6.628906 C 26.632812 6.582031 26.65625 6.539062 26.679688 6.492188 C 26.878906 6.089844 27.03125 6.003906 27.476562 5.984375 Z M 27.34375 7.929688 C 27.324219 7.964844 27.304688 8.003906 27.285156 8.039062 C 27.199219 8.207031 27.109375 8.375 27.023438 8.546875 C 26.992188 8.601562 26.964844 8.660156 26.933594 8.71875 C 26.875 8.832031 26.8125 8.949219 26.75 9.0625 C 26.691406 9.171875 26.636719 9.277344 26.582031 9.390625 C 26.429688 9.664062 26.367188 9.757812 26.0625 9.867188 C 25.964844 9.882812 25.867188 9.894531 25.773438 9.902344 C 25.722656 9.910156 25.671875 9.917969 25.617188 9.925781 C 25.515625 9.9375 25.410156 9.949219 25.308594 9.960938 C 25.082031 9.988281 24.863281 10.027344 24.640625 10.0625 C 24.515625 10.082031 24.390625 10.097656 24.265625 10.117188 C 24.578125 10.496094 24.914062 10.839844 25.265625 11.179688 C 25.53125 11.441406 25.644531 11.5625 25.652344 11.933594 C 25.648438 12.34375 25.578125 12.734375 25.496094 13.136719 C 25.445312 13.386719 25.425781 13.566406 25.5 13.808594 C 25.542969 13.785156 25.589844 13.757812 25.636719 13.734375 C 25.84375 13.625 26.054688 13.511719 26.261719 13.402344 C 26.335938 13.363281 26.40625 13.324219 26.480469 13.285156 C 26.550781 13.25 26.621094 13.210938 26.691406 13.175781 C 26.757812 13.140625 26.820312 13.105469 26.886719 13.070312 C 27.136719 12.957031 27.308594 12.886719 27.578125 12.972656 C 27.632812 13 27.6875 13.027344 27.746094 13.054688 C 27.835938 13.101562 27.835938 13.101562 27.933594 13.148438 C 27.996094 13.179688 28.058594 13.210938 28.125 13.246094 C 28.222656 13.292969 28.222656 13.292969 28.316406 13.339844 C 28.496094 13.425781 28.671875 13.515625 28.847656 13.601562 C 28.929688 13.644531 29.015625 13.6875 29.097656 13.726562 C 29.152344 13.753906 29.203125 13.78125 29.257812 13.808594 C 29.238281 13.632812 29.214844 13.457031 29.195312 13.28125 C 29.1875 13.234375 29.183594 13.183594 29.175781 13.132812 C 29.167969 13.085938 29.164062 13.039062 29.15625 12.988281 C 29.152344 12.945312 29.148438 12.898438 29.140625 12.855469 C 29.125 12.753906 29.109375 12.652344 29.085938 12.550781 C 29.003906 12.125 28.929688 11.738281 29.179688 11.359375 C 29.359375 11.167969 29.542969 10.996094 29.734375 10.820312 C 29.863281 10.703125 29.992188 10.582031 30.121094 10.460938 C 30.179688 10.410156 30.234375 10.359375 30.292969 10.304688 C 30.335938 10.265625 30.378906 10.226562 30.421875 10.1875 C 30.421875 10.164062 30.421875 10.140625 30.421875 10.117188 C 30.367188 10.109375 30.3125 10.101562 30.257812 10.09375 C 30.011719 10.0625 29.765625 10.027344 29.519531 9.992188 C 29.433594 9.980469 29.347656 9.96875 29.261719 9.957031 C 29.179688 9.949219 29.097656 9.9375 29.011719 9.921875 C 28.9375 9.914062 28.859375 9.902344 28.78125 9.890625 C 28.484375 9.824219 28.296875 9.738281 28.125 9.480469 C 28.097656 9.421875 28.070312 9.359375 28.039062 9.296875 C 28.007812 9.230469 27.976562 9.164062 27.941406 9.097656 C 27.894531 8.992188 27.894531 8.992188 27.84375 8.886719 C 27.777344 8.75 27.710938 8.613281 27.644531 8.476562 C 27.617188 8.414062 27.589844 8.355469 27.558594 8.292969 C 27.476562 8.121094 27.476562 8.121094 27.34375 7.929688 Z M 27.34375 7.929688 "/>
<path style=" stroke:none;fill-rule:nonzero;fill:rgb(0%,0%,0%);fill-opacity:1;" d="M 7.789062 5.984375 C 7.996094 6.03125 8.066406 6.128906 8.203125 6.289062 C 8.308594 6.460938 8.394531 6.640625 8.484375 6.820312 C 8.523438 6.894531 8.523438 6.894531 8.5625 6.972656 C 8.613281 7.082031 8.667969 7.1875 8.71875 7.296875 C 8.800781 7.460938 8.882812 7.625 8.964844 7.789062 C 9.015625 7.894531 9.070312 7.996094 9.121094 8.101562 C 9.144531 8.152344 9.167969 8.199219 9.195312 8.25 C 9.367188 8.597656 9.367188 8.597656 9.367188 8.75 C 9.449219 8.761719 9.535156 8.773438 9.625 8.785156 C 9.941406 8.824219 10.257812 8.867188 10.574219 8.910156 C 10.710938 8.929688 10.847656 8.945312 10.984375 8.964844 C 11.179688 8.988281 11.378906 9.015625 11.574219 9.042969 C 11.667969 9.054688 11.667969 9.054688 11.761719 9.066406 C 12.359375 9.152344 12.359375 9.152344 12.578125 9.433594 C 12.636719 9.652344 12.636719 9.832031 12.578125 10.046875 C 12.449219 10.226562 12.289062 10.34375 12.113281 10.472656 C 12.019531 10.550781 11.921875 10.628906 11.828125 10.707031 C 11.777344 10.75 11.730469 10.789062 11.679688 10.832031 C 10.859375 11.496094 10.859375 11.496094 10.46875 12.425781 C 10.46875 13.023438 10.628906 13.617188 10.824219 14.175781 C 10.9375 14.503906 10.964844 14.761719 10.9375 15.109375 C 10.796875 15.3125 10.796875 15.3125 10.59375 15.449219 C 10.1875 15.496094 9.9375 15.390625 9.589844 15.199219 C 9.539062 15.171875 9.492188 15.144531 9.441406 15.121094 C 9.289062 15.039062 9.132812 14.957031 8.980469 14.871094 C 8.828125 14.789062 8.671875 14.707031 8.519531 14.625 C 8.421875 14.574219 8.328125 14.523438 8.230469 14.472656 C 7.890625 14.289062 7.890625 14.289062 7.519531 14.21875 C 7.351562 14.277344 7.351562 14.277344 7.1875 14.378906 C 7.125 14.414062 7.0625 14.449219 6.996094 14.484375 C 6.898438 14.539062 6.898438 14.539062 6.796875 14.597656 C 6.660156 14.675781 6.527344 14.75 6.390625 14.828125 C 6.328125 14.863281 6.261719 14.898438 6.195312 14.9375 C 5.125 15.542969 5.125 15.542969 4.71875 15.449219 C 4.515625 15.3125 4.515625 15.3125 4.375 15.109375 C 4.34375 14.714844 4.40625 14.414062 4.535156 14.039062 C 4.878906 12.992188 4.878906 12.992188 4.707031 11.945312 C 4.375 11.460938 3.933594 11.078125 3.484375 10.707031 C 3.4375 10.667969 3.386719 10.628906 3.339844 10.585938 C 3.246094 10.511719 3.152344 10.4375 3.058594 10.367188 C 2.875 10.222656 2.753906 10.125 2.695312 9.894531 C 2.675781 9.625 2.699219 9.480469 2.863281 9.265625 C 3.152344 9.121094 3.421875 9.082031 3.738281 9.042969 C 3.832031 9.03125 3.832031 9.03125 3.929688 9.015625 C 4.128906 8.988281 4.332031 8.964844 4.53125 8.9375 C 4.667969 8.917969 4.804688 8.902344 4.945312 8.882812 C 5.277344 8.835938 5.613281 8.792969 5.945312 8.75 C 5.972656 8.664062 5.972656 8.664062 6 8.578125 C 6.09375 8.316406 6.207031 8.074219 6.328125 7.824219 C 6.351562 7.777344 6.375 7.730469 6.402344 7.683594 C 6.449219 7.582031 6.5 7.480469 6.550781 7.382812 C 6.625 7.230469 6.703125 7.074219 6.777344 6.921875 C 6.824219 6.824219 6.875 6.726562 6.921875 6.628906 C 6.945312 6.582031 6.96875 6.539062 6.992188 6.492188 C 7.191406 6.089844 7.34375 6.003906 7.789062 5.984375 Z M 7.65625 7.929688 C 7.636719 7.964844 7.617188 8.003906 7.597656 8.039062 C 7.511719 8.207031 7.421875 8.375 7.335938 8.546875 C 7.304688 8.601562 7.277344 8.660156 7.246094 8.71875 C 7.1875 8.832031 7.125 8.949219 7.0625 9.0625 C 7.003906 9.171875 6.949219 9.277344 6.894531 9.390625 C 6.742188 9.664062 6.679688 9.757812 6.375 9.867188 C 6.277344 9.882812 6.179688 9.894531 6.085938 9.902344 C 6.035156 9.910156 5.984375 9.917969 5.929688 9.925781 C 5.828125 9.9375 5.722656 9.949219 5.621094 9.960938 C 5.394531 9.988281 5.175781 10.027344 4.953125 10.0625 C 4.828125 10.082031 4.703125 10.097656 4.578125 10.117188 C 4.890625 10.496094 5.226562 10.839844 5.578125 11.179688 C 5.84375 11.441406 5.957031 11.5625 5.964844 11.933594 C 5.960938 12.34375 5.890625 12.734375 5.808594 13.136719 C 5.757812 13.386719 5.738281 13.566406 5.8125 13.808594 C 5.855469 13.785156 5.902344 13.757812 5.949219 13.734375 C 6.15625 13.625 6.367188 13.511719 6.574219 13.402344 C 6.648438 13.363281 6.71875 13.324219 6.792969 13.285156 C 6.863281 13.25 6.933594 13.210938 7.003906 13.175781 C 7.070312 13.140625 7.132812 13.105469 7.199219 13.070312 C 7.449219 12.957031 7.621094 12.886719 7.890625 12.972656 C 7.945312 13 8 13.027344 8.058594 13.054688 C 8.148438 13.101562 8.148438 13.101562 8.246094 13.148438 C 8.308594 13.179688 8.371094 13.210938 8.4375 13.246094 C 8.535156 13.292969 8.535156 13.292969 8.628906 13.339844 C 8.808594 13.425781 8.984375 13.515625 9.160156 13.601562 C 9.242188 13.644531 9.328125 13.6875 9.410156 13.726562 C 9.464844 13.753906 9.515625 13.78125 9.570312 13.808594 C 9.550781 13.632812 9.527344 13.457031 9.507812 13.28125 C 9.5 13.234375 9.496094 13.183594 9.488281 13.132812 C 9.480469 13.085938 9.476562 13.039062 9.46875 12.988281 C 9.464844 12.945312 9.460938 12.898438 9.453125 12.855469 C 9.4375 12.753906 9.421875 12.652344 9.398438 12.550781 C 9.316406 12.125 9.242188 11.738281 9.492188 11.359375 C 9.671875 11.167969 9.855469 10.996094 10.046875 10.820312 C 10.175781 10.703125 10.304688 10.582031 10.433594 10.460938 C 10.492188 10.410156 10.546875 10.359375 10.605469 10.304688 C 10.648438 10.265625 10.691406 10.226562 10.734375 10.1875 C 10.734375 10.164062 10.734375 10.140625 10.734375 10.117188 C 10.679688 10.109375 10.625 10.101562 10.570312 10.09375 C 10.324219 10.0625 10.078125 10.027344 9.832031 9.992188 C 9.746094 9.980469 9.660156 9.96875 9.574219 9.957031 C 9.492188 9.949219 9.410156 9.9375 9.324219 9.921875 C 9.25 9.914062 9.171875 9.902344 9.09375 9.890625 C 8.796875 9.824219 8.609375 9.738281 8.4375 9.480469 C 8.410156 9.421875 8.382812 9.359375 8.351562 9.296875 C 8.320312 9.230469 8.289062 9.164062 8.253906 9.097656 C 8.207031 8.992188 8.207031 8.992188 8.15625 8.886719 C 8.089844 8.75 8.023438 8.613281 7.957031 8.476562 C 7.929688 8.414062 7.902344 8.355469 7.871094 8.292969 C 7.789062 8.121094 7.789062 8.121094 7.65625 7.929688 Z M 7.65625 7.929688 "/>
<path style=" stroke:none;fill-rule:nonzero;fill:rgb(0%,0%,0%);fill-opacity:1;" d="M 17.773438 32.265625 C 17.945312 32.367188 17.945312 32.367188 18.046875 32.539062 C 18.101562 32.8125 18.089844 33.015625 17.945312 33.257812 C 17.703125 33.402344 17.5 33.414062 17.226562 33.359375 C 17.054688 33.257812 17.054688 33.257812 16.953125 33.085938 C 16.898438 32.8125 16.910156 32.609375 17.054688 32.367188 C 17.296875 32.222656 17.5 32.210938 17.773438 32.265625 Z M 17.773438 32.265625 "/>
</g>
</svg>
