<?xml version="1.0" encoding="UTF-8"?>
<svg xmlns="http://www.w3.org/2000/svg" xmlns:xlink="http://www.w3.org/1999/xlink" width="24px" height="24px" viewBox="0 0 24 24" version="1.1">
<g id="surface1">
<path style=" stroke:none;fill-rule:nonzero;fill:rgb(0%,0%,0%);fill-opacity:1;" d="M 11.179688 23.914062 C 12.445312 23.910156 13.472656 22.882812 13.476562 21.617188 L 8.878906 21.617188 C 8.878906 22.878906 9.914062 23.914062 11.175781 23.914062 Z M 18.070312 11.28125 C 18.070312 7.753906 16.199219 4.800781 12.902344 4.019531 L 12.902344 3.238281 C 12.902344 2.285156 12.132812 1.515625 11.179688 1.515625 C 10.226562 1.515625 9.457031 2.28125 9.457031 3.238281 L 9.457031 4.019531 C 6.171875 4.800781 4.289062 7.742188 4.289062 11.277344 L 4.289062 17.8125 C 4.265625 18.21875 4.089844 18.597656 3.800781 18.878906 L 3.191406 19.414062 C 2.527344 19.996094 2.71875 20.46875 3.453125 20.46875 L 19.203125 20.46875 C 19.847656 20.46875 19.835938 20 19.167969 19.414062 L 18.558594 18.878906 C 18.265625 18.589844 18.09375 18.203125 18.070312 17.796875 Z M 5.796875 18.777344 L 5.796875 11.082031 C 5.796875 7.902344 7.828125 5.3125 11.179688 5.3125 C 14.53125 5.3125 16.5625 7.902344 16.5625 11.082031 L 16.5625 18.777344 Z M 5.796875 18.777344 "/>
</g>
</svg>
