<?xml version="1.0" encoding="UTF-8"?>
<svg xmlns="http://www.w3.org/2000/svg" xmlns:xlink="http://www.w3.org/1999/xlink" width="35px" height="35px" viewBox="0 0 35 35" version="1.1">
<g id="surface1">
<path style=" stroke:none;fill-rule:nonzero;fill:rgb(0%,0%,0%);fill-opacity:1;" d="M 27.273438 -0.0117188 C 27.347656 -0.015625 27.347656 -0.015625 27.421875 -0.015625 C 27.910156 -0.015625 27.910156 -0.015625 28.09375 0.136719 C 28.179688 0.40625 28.160156 0.546875 28.035156 0.796875 C 28.003906 0.859375 27.976562 0.921875 27.945312 0.984375 C 27.910156 1.050781 27.878906 1.117188 27.84375 1.183594 C 27.808594 1.253906 27.777344 1.320312 27.742188 1.394531 C 27.632812 1.613281 27.523438 1.832031 27.414062 2.050781 C 27.34375 2.1875 27.273438 2.324219 27.207031 2.464844 C 27.101562 2.667969 27 2.875 26.898438 3.078125 C 26.667969 3.535156 26.445312 3.992188 26.230469 4.453125 C 25.9375 5.070312 25.632812 5.679688 25.328125 6.289062 C 25.023438 6.890625 24.726562 7.492188 24.4375 8.101562 C 24.128906 8.753906 23.808594 9.398438 23.484375 10.042969 C 23.160156 10.691406 22.839844 11.339844 22.53125 11.996094 C 22.339844 12.398438 22.144531 12.796875 21.945312 13.195312 C 22.738281 12.824219 23.523438 12.4375 24.304688 12.046875 C 24.839844 11.777344 25.375 11.511719 25.917969 11.257812 C 26.578125 10.945312 27.234375 10.617188 27.890625 10.289062 C 28.605469 9.929688 29.320312 9.578125 30.039062 9.234375 C 30.625 8.957031 31.203125 8.667969 31.78125 8.375 C 32.554688 7.988281 33.335938 7.609375 34.121094 7.238281 C 34.210938 7.195312 34.296875 7.152344 34.382812 7.109375 C 34.585938 7.082031 34.585938 7.082031 34.796875 7.109375 C 35.113281 7.503906 35.042969 8 35 8.476562 C 34.9375 8.746094 34.84375 8.980469 34.726562 9.226562 C 34.699219 9.289062 34.667969 9.351562 34.640625 9.414062 C 34.386719 9.910156 34.0625 10.316406 33.703125 10.734375 C 33.648438 10.792969 33.597656 10.851562 33.542969 10.914062 C 33.230469 11.273438 32.90625 11.589844 32.539062 11.894531 C 32.492188 11.933594 32.445312 11.976562 32.394531 12.015625 C 31.933594 12.402344 31.4375 12.703125 30.914062 13 C 30.828125 13.050781 30.738281 13.101562 30.652344 13.152344 C 30.476562 13.257812 30.296875 13.359375 30.121094 13.460938 C 29.777344 13.660156 29.433594 13.863281 29.089844 14.066406 C 28.96875 14.136719 28.847656 14.207031 28.726562 14.28125 C 28.605469 14.351562 28.488281 14.421875 28.367188 14.492188 C 28.128906 14.632812 27.886719 14.777344 27.648438 14.917969 C 27.585938 14.957031 27.523438 14.992188 27.460938 15.027344 C 27.105469 15.238281 26.746094 15.449219 26.390625 15.660156 C 25.601562 16.121094 24.8125 16.582031 24.027344 17.054688 C 23.207031 17.550781 22.375 18.035156 21.546875 18.523438 C 21.152344 18.753906 20.753906 18.988281 20.359375 19.222656 C 20.300781 19.257812 20.242188 19.289062 20.179688 19.328125 C 20.125 19.359375 20.070312 19.390625 20.011719 19.425781 C 19.960938 19.457031 19.90625 19.488281 19.851562 19.519531 C 19.734375 19.589844 19.617188 19.664062 19.5 19.734375 C 19.4375 19.773438 19.375 19.808594 19.3125 19.847656 C 19.257812 19.882812 19.199219 19.917969 19.144531 19.953125 C 19.003906 20.03125 19.003906 20.03125 18.867188 20.03125 C 18.84375 20.160156 18.84375 20.160156 18.820312 20.292969 C 18.753906 20.632812 18.667969 20.960938 18.574219 21.292969 C 18.558594 21.34375 18.546875 21.398438 18.53125 21.453125 C 18.46875 21.671875 18.410156 21.890625 18.347656 22.113281 C 18.070312 23.097656 17.796875 24.101562 17.816406 25.136719 C 17.816406 25.195312 17.816406 25.253906 17.820312 25.316406 C 17.835938 26.046875 17.898438 26.679688 18.394531 27.25 C 19.085938 28.117188 19.355469 29.328125 19.277344 30.421875 C 19.148438 31.527344 18.820312 32.410156 18.117188 33.289062 C 18.074219 33.347656 18.03125 33.402344 17.988281 33.460938 C 17.289062 34.28125 16.167969 34.863281 15.109375 35 C 13.644531 35.109375 12.363281 34.890625 11.179688 33.984375 C 10.207031 33.144531 9.523438 32.054688 9.367188 30.761719 C 9.265625 29.257812 9.558594 27.925781 10.574219 26.757812 C 11.003906 26.300781 11.441406 25.980469 11.980469 25.671875 C 12.367188 25.445312 12.679688 25.171875 13 24.863281 C 13.183594 24.6875 13.371094 24.527344 13.570312 24.371094 C 14.910156 23.285156 14.910156 23.285156 15.585938 21.738281 C 15.648438 21.070312 15.589844 20.410156 15.449219 19.757812 C 14.433594 19.472656 13.558594 19.4375 12.601562 19.914062 C 11.863281 20.347656 11.195312 21 10.652344 21.660156 C 10.546875 21.78125 10.441406 21.894531 10.328125 22.011719 C 9.871094 22.480469 9.5 22.957031 9.152344 23.511719 C 8.457031 24.625 7.4375 25.378906 6.1875 25.773438 C 4.804688 26.0625 3.367188 25.847656 2.171875 25.101562 C 1.109375 24.378906 0.304688 23.25 0.03125 21.988281 C -0.140625 20.542969 0.0078125 19.121094 0.90625 17.929688 C 1.707031 16.949219 2.8125 16.148438 4.101562 15.996094 C 5.484375 15.910156 6.84375 16.046875 7.941406 16.972656 C 8.714844 17.585938 10.050781 17.429688 10.96875 17.324219 C 12.082031 17.171875 13.164062 16.859375 14.242188 16.558594 C 14.292969 16.546875 14.339844 16.53125 14.390625 16.519531 C 14.863281 16.386719 15.042969 16.308594 15.289062 15.875 C 15.324219 15.816406 15.324219 15.816406 15.359375 15.753906 C 15.433594 15.625 15.507812 15.496094 15.582031 15.363281 C 15.632812 15.273438 15.6875 15.183594 15.738281 15.089844 C 15.84375 14.90625 15.949219 14.726562 16.054688 14.542969 C 16.25 14.203125 16.445312 13.871094 16.644531 13.535156 C 16.886719 13.128906 17.128906 12.71875 17.367188 12.308594 C 17.390625 12.269531 17.414062 12.226562 17.441406 12.183594 C 17.464844 12.144531 17.488281 12.101562 17.511719 12.058594 C 17.96875 11.28125 18.425781 10.507812 18.890625 9.738281 C 19.34375 8.984375 19.789062 8.222656 20.234375 7.460938 C 20.558594 6.902344 20.890625 6.34375 21.222656 5.785156 C 21.371094 5.535156 21.519531 5.28125 21.667969 5.027344 C 21.78125 4.839844 21.890625 4.648438 22.003906 4.460938 C 22.140625 4.230469 22.273438 4 22.40625 3.769531 C 22.804688 3.082031 23.253906 2.511719 23.820312 1.953125 C 23.914062 1.859375 24.003906 1.761719 24.09375 1.667969 C 24.921875 0.800781 26.039062 -0.0117188 27.273438 -0.0117188 Z M 23.953125 2.789062 C 23.121094 3.761719 22.527344 4.953125 21.882812 6.058594 C 21.664062 6.433594 21.445312 6.804688 21.226562 7.179688 C 20.984375 7.585938 20.742188 7.992188 20.503906 8.402344 C 20.46875 8.464844 20.46875 8.464844 20.429688 8.527344 C 20.40625 8.570312 20.382812 8.609375 20.359375 8.652344 C 19.902344 9.429688 19.445312 10.203125 18.980469 10.972656 C 18.601562 11.605469 18.226562 12.242188 17.855469 12.878906 C 17.808594 12.960938 17.757812 13.042969 17.710938 13.125 C 17.6875 13.167969 17.664062 13.207031 17.640625 13.25 C 17.410156 13.640625 17.179688 14.03125 16.949219 14.417969 C 16.625 14.964844 16.308594 15.511719 15.996094 16.0625 C 16.40625 16.03125 16.726562 15.851562 17.085938 15.664062 C 17.21875 15.59375 17.355469 15.523438 17.492188 15.457031 C 17.558594 15.421875 17.628906 15.386719 17.699219 15.347656 C 18.089844 15.152344 18.484375 14.96875 18.878906 14.78125 C 19.003906 14.722656 19.128906 14.664062 19.25 14.601562 C 19.433594 14.515625 19.613281 14.441406 19.804688 14.371094 C 20.898438 13.941406 21.25 13.265625 21.707031 12.222656 C 21.773438 12.082031 21.839844 11.941406 21.90625 11.796875 C 22.039062 11.515625 22.171875 11.234375 22.296875 10.949219 C 22.75 9.953125 23.230469 8.96875 23.722656 7.992188 C 24.09375 7.261719 24.453125 6.527344 24.804688 5.789062 C 25.0625 5.246094 25.332031 4.707031 25.601562 4.171875 C 26.179688 3.019531 26.742188 1.859375 27.273438 0.683594 C 25.976562 0.625 24.777344 1.90625 23.953125 2.789062 Z M 33.644531 8.25 C 33.589844 8.277344 33.539062 8.304688 33.480469 8.332031 C 33.304688 8.417969 33.125 8.503906 32.949219 8.59375 C 32.828125 8.652344 32.703125 8.710938 32.582031 8.773438 C 31.832031 9.136719 31.085938 9.507812 30.34375 9.882812 C 29.824219 10.144531 29.300781 10.394531 28.777344 10.644531 C 28.226562 10.90625 27.683594 11.175781 27.140625 11.449219 C 26.539062 11.75 25.941406 12.046875 25.335938 12.335938 C 24.703125 12.636719 24.074219 12.945312 23.445312 13.261719 C 22.757812 13.605469 22.070312 13.945312 21.375 14.277344 C 20.785156 14.554688 20.207031 14.847656 19.625 15.140625 C 18.859375 15.523438 18.089844 15.898438 17.3125 16.261719 C 17.21875 16.308594 17.121094 16.359375 17.027344 16.410156 C 16.605469 16.636719 16.160156 16.75 15.695312 16.871094 C 15.609375 16.894531 15.519531 16.917969 15.433594 16.941406 C 15.253906 16.992188 15.070312 17.039062 14.890625 17.085938 C 14.648438 17.152344 14.40625 17.21875 14.160156 17.289062 C 13.429688 17.492188 12.699219 17.679688 11.957031 17.832031 C 11.890625 17.847656 11.824219 17.859375 11.757812 17.875 C 11.09375 18.007812 10.445312 18.058594 9.769531 18.085938 C 9.699219 18.089844 9.625 18.089844 9.550781 18.09375 C 9.375 18.101562 9.199219 18.109375 9.023438 18.117188 C 9.058594 18.1875 9.097656 18.261719 9.136719 18.339844 C 9.652344 19.382812 9.808594 20.308594 9.84375 21.464844 C 10.050781 21.257812 10.253906 21.050781 10.457031 20.84375 C 11.476562 19.792969 12.5 18.875 14.039062 18.847656 C 15.207031 18.84375 16.292969 19.324219 17.257812 19.945312 C 17.417969 20.039062 17.417969 20.039062 17.5625 20.023438 C 17.769531 19.933594 17.964844 19.824219 18.164062 19.714844 C 18.210938 19.6875 18.257812 19.660156 18.304688 19.632812 C 18.8125 19.339844 19.316406 19.039062 19.816406 18.734375 C 20.371094 18.402344 20.925781 18.074219 21.480469 17.746094 C 21.523438 17.722656 21.5625 17.699219 21.605469 17.675781 C 21.945312 17.476562 22.28125 17.28125 22.617188 17.085938 C 22.910156 16.914062 23.203125 16.742188 23.5 16.570312 C 23.539062 16.542969 23.582031 16.519531 23.625 16.496094 C 24.195312 16.160156 24.761719 15.824219 25.328125 15.484375 C 25.933594 15.117188 26.542969 14.757812 27.15625 14.398438 C 27.195312 14.375 27.238281 14.351562 27.28125 14.324219 C 27.53125 14.179688 27.785156 14.03125 28.035156 13.882812 C 28.25 13.757812 28.46875 13.632812 28.683594 13.503906 C 28.726562 13.480469 28.765625 13.457031 28.8125 13.429688 C 29.105469 13.257812 29.394531 13.085938 29.6875 12.914062 C 29.972656 12.75 30.253906 12.582031 30.542969 12.421875 C 31.25 12.011719 31.875 11.570312 32.46875 11.007812 C 32.53125 10.949219 32.59375 10.890625 32.65625 10.832031 C 33.441406 10.082031 34.277344 9.128906 34.316406 8 C 34.074219 8 33.859375 8.144531 33.644531 8.25 Z M 1.710938 18.046875 C 0.941406 18.988281 0.554688 20.074219 0.628906 21.292969 C 0.730469 22.167969 1.023438 22.894531 1.570312 23.585938 C 1.609375 23.632812 1.648438 23.679688 1.683594 23.730469 C 2.308594 24.496094 3.265625 25.003906 4.238281 25.15625 C 5.433594 25.257812 6.535156 25.0625 7.511719 24.324219 C 7.679688 24.175781 7.839844 24.019531 8 23.859375 C 8.042969 23.816406 8.085938 23.773438 8.128906 23.730469 C 8.894531 22.9375 9.195312 21.847656 9.1875 20.773438 C 9.152344 19.597656 8.679688 18.664062 7.859375 17.84375 C 7.820312 17.800781 7.78125 17.757812 7.738281 17.710938 C 7.449219 17.429688 7.125 17.25 6.765625 17.070312 C 6.722656 17.046875 6.675781 17.023438 6.628906 17 C 4.953125 16.183594 2.957031 16.738281 1.710938 18.046875 Z M 16.269531 20.164062 C 16.269531 20.214844 16.273438 20.261719 16.273438 20.3125 C 16.277344 20.535156 16.28125 20.753906 16.28125 20.976562 C 16.285156 21.054688 16.285156 21.128906 16.289062 21.207031 C 16.296875 22.394531 15.800781 23.226562 14.992188 24.054688 C 14.652344 24.402344 14.304688 24.722656 13.910156 25.007812 C 13.859375 25.046875 13.859375 25.046875 13.808594 25.085938 C 13.808594 25.109375 13.808594 25.132812 13.808594 25.15625 C 13.882812 25.15625 13.960938 25.160156 14.039062 25.160156 C 15.175781 25.199219 16.09375 25.421875 17.089844 25.976562 C 17.089844 25.933594 17.089844 25.894531 17.089844 25.851562 C 17.121094 24.332031 17.378906 22.949219 17.796875 21.496094 C 17.820312 21.414062 17.84375 21.332031 17.867188 21.25 C 17.890625 21.179688 17.910156 21.105469 17.933594 21.03125 C 17.988281 20.847656 17.988281 20.847656 17.976562 20.644531 C 17.941406 20.65625 17.902344 20.667969 17.859375 20.679688 C 17.433594 20.765625 17.175781 20.679688 16.816406 20.445312 C 16.742188 20.390625 16.664062 20.339844 16.589844 20.289062 C 16.425781 20.152344 16.425781 20.152344 16.269531 20.164062 Z M 10.945312 27.417969 C 10.210938 28.335938 9.929688 29.464844 10.046875 30.625 C 10.199219 31.648438 10.621094 32.421875 11.347656 33.15625 C 11.386719 33.195312 11.429688 33.238281 11.46875 33.285156 C 11.757812 33.566406 12.085938 33.746094 12.441406 33.925781 C 12.488281 33.949219 12.53125 33.972656 12.578125 33.996094 C 13.621094 34.503906 14.726562 34.445312 15.808594 34.109375 C 16.882812 33.707031 17.710938 32.898438 18.210938 31.875 C 18.710938 30.773438 18.699219 29.597656 18.285156 28.46875 C 17.796875 27.339844 16.925781 26.511719 15.789062 26.046875 C 13.988281 25.371094 12.183594 26.054688 10.945312 27.417969 Z M 10.945312 27.417969 "/>
<path style=" stroke:none;fill-rule:nonzero;fill:rgb(0%,0%,0%);fill-opacity:1;" d="M 16.035156 27.519531 C 16.714844 28.011719 17.171875 28.710938 17.335938 29.535156 C 17.453125 30.429688 17.25 31.242188 16.75 31.992188 C 16.226562 32.65625 15.4375 33.035156 14.609375 33.140625 C 13.78125 33.195312 13.03125 32.964844 12.375 32.46875 C 11.78125 31.9375 11.308594 31.246094 11.265625 30.4375 C 11.246094 29.425781 11.4375 28.652344 12.132812 27.878906 C 13.183594 26.878906 14.824219 26.773438 16.035156 27.519531 Z M 12.460938 28.582031 C 12.351562 28.734375 12.257812 28.890625 12.167969 29.054688 C 12.144531 29.09375 12.121094 29.136719 12.097656 29.179688 C 11.855469 29.710938 11.875 30.386719 12.074219 30.925781 C 12.367188 31.554688 12.804688 32.046875 13.453125 32.320312 C 14.066406 32.523438 14.671875 32.519531 15.261719 32.269531 C 15.914062 31.9375 16.355469 31.449219 16.589844 30.761719 C 16.769531 30.128906 16.683594 29.566406 16.40625 28.976562 C 16.101562 28.4375 15.617188 28 15.03125 27.796875 C 14.074219 27.589844 13.09375 27.804688 12.460938 28.582031 Z M 12.460938 28.582031 "/>
<path style=" stroke:none;fill-rule:nonzero;fill:rgb(0%,0%,0%);fill-opacity:1;" d="M 6.558594 18.304688 C 7.285156 18.800781 7.722656 19.449219 7.929688 20.304688 C 8.039062 21.296875 7.878906 22.136719 7.253906 22.941406 C 6.816406 23.4375 6.128906 23.867188 5.457031 23.941406 C 4.445312 24 3.609375 23.878906 2.816406 23.1875 C 2.195312 22.566406 1.878906 21.824219 1.839844 20.945312 C 1.863281 20.054688 2.167969 19.257812 2.816406 18.636719 C 3.867188 17.769531 5.375 17.597656 6.558594 18.304688 Z M 3.226562 19.226562 C 2.792969 19.699219 2.535156 20.25 2.527344 20.894531 C 2.566406 21.625 2.8125 22.15625 3.316406 22.683594 C 3.828125 23.136719 4.488281 23.339844 5.171875 23.300781 C 5.917969 23.179688 6.464844 22.828125 6.90625 22.21875 C 7.273438 21.597656 7.371094 20.882812 7.199219 20.179688 C 7.136719 20.027344 7.0625 19.894531 6.972656 19.757812 C 6.941406 19.707031 6.914062 19.660156 6.882812 19.613281 C 6.496094 19.050781 5.984375 18.707031 5.320312 18.5625 C 4.558594 18.445312 3.789062 18.703125 3.226562 19.226562 Z M 3.226562 19.226562 "/>
<path style=" stroke:none;fill-rule:nonzero;fill:rgb(0%,0%,0%);fill-opacity:1;" d="M 18.183594 16.929688 C 18.546875 17.121094 18.738281 17.390625 18.867188 17.773438 C 18.894531 18.148438 18.84375 18.402344 18.664062 18.730469 C 18.386719 19.023438 18.125 19.148438 17.722656 19.160156 C 17.359375 19.15625 17.171875 19.089844 16.882812 18.867188 C 16.613281 18.527344 16.566406 18.246094 16.585938 17.8125 C 16.636719 17.472656 16.8125 17.292969 17.058594 17.070312 C 17.390625 16.839844 17.800781 16.800781 18.183594 16.929688 Z M 17.40625 17.675781 C 17.269531 17.84375 17.269531 17.84375 17.300781 18.089844 C 17.339844 18.335938 17.339844 18.335938 17.570312 18.457031 C 17.796875 18.492188 17.882812 18.476562 18.074219 18.347656 C 18.203125 18.1875 18.203125 18.1875 18.179688 17.972656 C 18.101562 17.726562 18.101562 17.726562 17.910156 17.570312 C 17.683594 17.527344 17.597656 17.550781 17.40625 17.675781 Z M 17.40625 17.675781 "/>
</g>
</svg>
