<?xml version="1.0" encoding="UTF-8"?>
<svg xmlns="http://www.w3.org/2000/svg" xmlns:xlink="http://www.w3.org/1999/xlink" width="22px" height="22px" viewBox="0 0 22 22" version="1.1">
<g id="surface1">
<path style=" stroke:none;fill-rule:nonzero;fill:rgb(0%,0%,0%);fill-opacity:1;" d="M 7.152344 12.425781 C 7.222656 12.285156 7.335938 12.164062 7.480469 12.078125 L 10.148438 10.539062 L 10.148438 5.894531 C 10.148438 5.421875 10.53125 5.042969 11 5.042969 C 11.46875 5.042969 11.851562 5.421875 11.851562 5.894531 L 11.851562 11 C 11.851562 11.304688 11.691406 11.574219 11.449219 11.722656 C 11.402344 11.769531 11.347656 11.8125 11.285156 11.847656 L 8.332031 13.554688 C 8.171875 13.648438 7.992188 13.679688 7.816406 13.664062 C 7.554688 13.632812 7.3125 13.488281 7.167969 13.242188 C 7.019531 12.980469 7.023438 12.675781 7.152344 12.425781 Z M 7.152344 12.425781 "/>
<path style=" stroke:none;fill-rule:evenodd;fill:rgb(0%,0%,0%);fill-opacity:1;" d="M 11 21.214844 C 16.640625 21.214844 21.214844 16.640625 21.214844 11 C 21.214844 5.359375 16.640625 0.785156 11 0.785156 C 5.359375 0.785156 0.785156 5.359375 0.785156 11 C 0.785156 16.640625 5.359375 21.214844 11 21.214844 Z M 11 19.511719 C 15.703125 19.511719 19.511719 15.699219 19.511719 11 C 19.511719 6.300781 15.703125 2.488281 11 2.488281 C 6.296875 2.488281 2.488281 6.300781 2.488281 11 C 2.488281 15.699219 6.296875 19.511719 11 19.511719 Z M 11 19.511719 "/>
</g>
</svg>
