<?xml version="1.0" encoding="UTF-8"?>
<svg xmlns="http://www.w3.org/2000/svg" xmlns:xlink="http://www.w3.org/1999/xlink" width="22px" height="22px" viewBox="0 0 22 22" version="1.1">
<g id="surface1">
<path style="fill-rule:nonzero;fill:rgb(9.803922%,36.078432%,65.882355%);fill-opacity:1;stroke-width:1;stroke-linecap:butt;stroke-linejoin:miter;stroke:rgb(25.098041%,46.666667%,70.980394%);stroke-opacity:1;stroke-miterlimit:4;" d="M 9.102983 15.814631 C 9.192472 15.635653 9.336648 15.481534 9.520597 15.372159 L 12.916193 13.413352 L 12.916193 7.502131 C 12.916193 6.900568 13.403409 6.418324 14 6.418324 C 14.596591 6.418324 15.083807 6.900568 15.083807 7.502131 L 15.083807 14 C 15.083807 14.387784 14.879972 14.730824 14.571733 14.919744 C 14.512074 14.979403 14.442472 15.034091 14.362926 15.078835 L 10.604403 17.25142 C 10.400568 17.370739 10.171875 17.410511 9.948153 17.390625 C 9.615057 17.350852 9.306818 17.166903 9.122869 16.853693 C 8.933949 16.520597 8.93892 16.132812 9.102983 15.814631 Z M 9.102983 15.814631 " transform="matrix(0.785714,0,0,0.785714,0,0)"/>
<path style="fill-rule:evenodd;fill:rgb(9.803922%,36.078432%,65.882355%);fill-opacity:1;stroke-width:1;stroke-linecap:butt;stroke-linejoin:miter;stroke:rgb(25.098041%,46.666667%,70.980394%);stroke-opacity:1;stroke-miterlimit:4;" d="M 14 27.00071 C 21.178977 27.00071 27.00071 21.178977 27.00071 14 C 27.00071 6.821023 21.178977 0.99929 14 0.99929 C 6.821023 0.99929 0.99929 6.821023 0.99929 14 C 0.99929 21.178977 6.821023 27.00071 14 27.00071 Z M 14 24.833097 C 19.985795 24.833097 24.833097 19.980824 24.833097 14 C 24.833097 8.019176 19.985795 3.166903 14 3.166903 C 8.014205 3.166903 3.166903 8.019176 3.166903 14 C 3.166903 19.980824 8.014205 24.833097 14 24.833097 Z M 14 24.833097 " transform="matrix(0.785714,0,0,0.785714,0,0)"/>
</g>
</svg>
