<?xml version="1.0" encoding="UTF-8"?>
<svg xmlns="http://www.w3.org/2000/svg" xmlns:xlink="http://www.w3.org/1999/xlink" width="30px" height="30px" viewBox="0 0 30 30" version="1.1">
<g id="surface1">
<path style=" stroke:none;fill-rule:nonzero;fill:rgb(0%,0%,0%);fill-opacity:1;" d="M 14.984375 -0.015625 C 15.035156 -0.015625 15.09375 -0.015625 15.152344 -0.015625 C 15.992188 -0.0117188 16.8125 0.0078125 17.636719 0.175781 C 17.695312 0.1875 17.753906 0.199219 17.820312 0.210938 C 19.933594 0.644531 21.914062 1.4375 23.671875 2.695312 C 23.707031 2.722656 23.746094 2.75 23.785156 2.777344 C 24.378906 3.195312 24.914062 3.664062 25.4375 4.167969 C 25.539062 4.273438 25.648438 4.371094 25.75 4.472656 C 26.195312 4.90625 26.582031 5.363281 26.953125 5.859375 C 27.003906 5.925781 27.054688 5.992188 27.105469 6.058594 C 27.441406 6.503906 27.441406 6.503906 27.597656 6.738281 C 27.597656 6.695312 27.597656 6.65625 27.597656 6.613281 C 27.597656 6.222656 27.601562 5.824219 27.609375 5.433594 C 27.609375 5.230469 27.613281 5.027344 27.613281 4.828125 C 27.617188 4.59375 27.617188 4.363281 27.621094 4.128906 C 27.621094 4.058594 27.621094 3.984375 27.621094 3.910156 C 27.628906 3.457031 27.667969 3.101562 27.996094 2.761719 C 28.03125 2.742188 28.066406 2.722656 28.097656 2.699219 C 28.132812 2.675781 28.167969 2.65625 28.203125 2.632812 C 28.53125 2.453125 28.964844 2.460938 29.320312 2.558594 C 29.613281 2.6875 29.789062 2.882812 29.941406 3.164062 C 30.011719 3.371094 30.011719 3.535156 30.011719 3.757812 C 30.011719 3.820312 30.011719 3.820312 30.011719 3.882812 C 30.011719 4.023438 30.011719 4.160156 30.011719 4.300781 C 30.011719 4.347656 30.011719 4.398438 30.011719 4.445312 C 30.015625 4.699219 30.015625 4.957031 30.015625 5.210938 C 30.015625 5.472656 30.019531 5.730469 30.023438 5.992188 C 30.023438 6.195312 30.023438 6.398438 30.023438 6.597656 C 30.023438 6.695312 30.027344 6.789062 30.027344 6.886719 C 30.039062 8.050781 29.730469 9.035156 28.910156 9.890625 C 28.023438 10.710938 27.011719 10.925781 25.847656 10.925781 C 25.746094 10.925781 25.648438 10.925781 25.546875 10.925781 C 25.339844 10.925781 25.128906 10.925781 24.917969 10.925781 C 24.652344 10.925781 24.386719 10.925781 24.117188 10.925781 C 23.910156 10.929688 23.703125 10.929688 23.496094 10.929688 C 23.398438 10.929688 23.300781 10.929688 23.199219 10.929688 C 22.246094 10.933594 22.246094 10.933594 21.855469 10.664062 C 21.574219 10.375 21.445312 10.066406 21.445312 9.667969 C 21.484375 9.316406 21.613281 9.042969 21.855469 8.789062 C 22.269531 8.519531 22.640625 8.519531 23.125 8.519531 C 23.203125 8.519531 23.277344 8.519531 23.355469 8.515625 C 23.558594 8.515625 23.757812 8.511719 23.960938 8.511719 C 24.164062 8.511719 24.367188 8.507812 24.574219 8.503906 C 24.976562 8.5 25.378906 8.496094 25.78125 8.496094 C 25.6875 8.355469 25.59375 8.214844 25.5 8.074219 C 25.472656 8.03125 25.449219 7.996094 25.417969 7.953125 C 25.222656 7.652344 25.015625 7.367188 24.785156 7.089844 C 24.738281 7.03125 24.691406 6.972656 24.640625 6.910156 C 22.605469 4.441406 19.605469 2.863281 16.433594 2.484375 C 13.300781 2.207031 10.070312 2.914062 7.558594 4.863281 C 7.488281 4.914062 7.421875 4.964844 7.351562 5.015625 C 7.042969 5.246094 6.746094 5.480469 6.480469 5.761719 C 6.375 5.871094 6.265625 5.964844 6.152344 6.058594 C 5.914062 6.269531 5.707031 6.496094 5.507812 6.738281 C 5.46875 6.785156 5.429688 6.832031 5.390625 6.878906 C 5.25 7.042969 5.113281 7.210938 4.980469 7.382812 C 4.957031 7.417969 4.929688 7.449219 4.902344 7.484375 C 3.742188 8.984375 3.027344 10.753906 2.636719 12.597656 C 2.625 12.644531 2.613281 12.691406 2.605469 12.742188 C 1.957031 15.785156 2.730469 19.140625 4.355469 21.746094 C 4.515625 21.988281 4.6875 22.214844 4.863281 22.441406 C 4.914062 22.511719 4.964844 22.578125 5.015625 22.648438 C 5.246094 22.957031 5.480469 23.253906 5.761719 23.519531 C 5.871094 23.625 5.964844 23.734375 6.058594 23.847656 C 6.269531 24.085938 6.496094 24.292969 6.738281 24.492188 C 6.785156 24.53125 6.832031 24.570312 6.878906 24.609375 C 7.042969 24.75 7.210938 24.886719 7.382812 25.019531 C 7.417969 25.042969 7.449219 25.070312 7.484375 25.097656 C 9.765625 26.863281 12.609375 27.621094 15.460938 27.597656 C 15.566406 27.59375 15.566406 27.59375 15.667969 27.59375 C 15.804688 27.59375 15.9375 27.589844 16.070312 27.585938 C 16.476562 27.578125 16.746094 27.597656 17.054688 27.886719 C 17.089844 27.925781 17.121094 27.96875 17.15625 28.007812 C 17.191406 28.046875 17.226562 28.089844 17.261719 28.128906 C 17.480469 28.425781 17.445312 28.828125 17.402344 29.179688 C 17.25 29.5625 17.011719 29.777344 16.640625 29.941406 C 16.359375 30.015625 16.078125 30.011719 15.789062 30.011719 C 15.738281 30.011719 15.679688 30.011719 15.625 30.011719 C 15.449219 30.011719 15.269531 30.011719 15.09375 30.011719 C 15.035156 30.011719 14.976562 30.011719 14.914062 30.011719 C 14.050781 30.011719 13.214844 29.988281 12.363281 29.824219 C 12.3125 29.816406 12.257812 29.804688 12.203125 29.796875 C 9.351562 29.28125 6.714844 27.90625 4.628906 25.898438 C 4.589844 25.863281 4.550781 25.824219 4.511719 25.785156 C 3.953125 25.25 3.445312 24.707031 2.988281 24.082031 C 2.9375 24.011719 2.886719 23.945312 2.835938 23.878906 C 2.484375 23.402344 2.167969 22.902344 1.875 22.382812 C 1.851562 22.34375 1.828125 22.300781 1.804688 22.253906 C 1.042969 20.902344 0.527344 19.429688 0.21875 17.90625 C 0.203125 17.847656 0.203125 17.847656 0.191406 17.78125 C 0.0117188 16.863281 -0.0234375 15.949219 -0.015625 15.015625 C -0.015625 14.964844 -0.015625 14.90625 -0.015625 14.847656 C -0.015625 14.003906 0.0117188 13.1875 0.175781 12.363281 C 0.191406 12.285156 0.191406 12.285156 0.203125 12.203125 C 0.71875 9.351562 2.09375 6.714844 4.101562 4.628906 C 4.136719 4.589844 4.175781 4.550781 4.214844 4.511719 C 4.75 3.953125 5.292969 3.445312 5.917969 2.988281 C 5.988281 2.9375 6.054688 2.886719 6.121094 2.835938 C 6.597656 2.484375 7.097656 2.167969 7.617188 1.875 C 7.65625 1.851562 7.699219 1.828125 7.746094 1.804688 C 9.097656 1.042969 10.570312 0.527344 12.09375 0.21875 C 12.152344 0.203125 12.152344 0.203125 12.21875 0.191406 C 13.136719 0.0117188 14.050781 -0.0234375 14.984375 -0.015625 Z M 14.984375 -0.015625 "/>
<path style=" stroke:none;fill-rule:nonzero;fill:rgb(0%,0%,0%);fill-opacity:1;" d="M 15.613281 4.542969 C 15.898438 4.710938 16.066406 4.960938 16.171875 5.273438 C 16.179688 5.40625 16.179688 5.542969 16.183594 5.675781 C 16.183594 5.714844 16.183594 5.753906 16.183594 5.800781 C 16.183594 5.9375 16.183594 6.074219 16.183594 6.210938 C 16.183594 6.308594 16.183594 6.410156 16.183594 6.503906 C 16.183594 6.832031 16.183594 7.15625 16.183594 7.480469 C 16.183594 7.589844 16.183594 7.699219 16.183594 7.816406 C 16.1875 8.335938 16.1875 8.863281 16.1875 9.386719 C 16.1875 9.992188 16.191406 10.597656 16.191406 11.199219 C 16.195312 11.667969 16.195312 12.136719 16.195312 12.601562 C 16.195312 12.882812 16.195312 13.160156 16.199219 13.441406 C 16.199219 13.703125 16.199219 13.964844 16.199219 14.230469 C 16.199219 14.328125 16.199219 14.421875 16.203125 14.519531 C 16.207031 15.152344 16.171875 15.574219 15.734375 16.054688 C 15.648438 16.136719 15.566406 16.222656 15.480469 16.304688 C 15.433594 16.351562 15.390625 16.394531 15.34375 16.445312 C 15.195312 16.597656 15.042969 16.746094 14.890625 16.894531 C 14.785156 17.003906 14.683594 17.105469 14.574219 17.214844 C 14.355469 17.429688 14.136719 17.652344 13.914062 17.871094 C 13.660156 18.125 13.40625 18.378906 13.152344 18.628906 C 12.90625 18.878906 12.664062 19.121094 12.417969 19.367188 C 12.316406 19.46875 12.210938 19.574219 12.105469 19.675781 C 11.960938 19.820312 11.816406 19.964844 11.667969 20.113281 C 11.628906 20.152344 11.585938 20.195312 11.542969 20.238281 C 11.203125 20.574219 10.882812 20.828125 10.390625 20.867188 C 9.976562 20.847656 9.660156 20.683594 9.375 20.390625 C 9.171875 20.078125 9.109375 19.746094 9.15625 19.382812 C 9.320312 18.75 9.855469 18.371094 10.378906 18.042969 C 11.769531 17.167969 13.445312 15.910156 13.832031 14.222656 C 14.320312 11.785156 14.0625 9.09375 13.890625 6.628906 C 13.886719 6.539062 13.882812 6.453125 13.875 6.363281 C 13.863281 6.199219 13.851562 6.035156 13.839844 5.871094 C 13.8125 5.441406 13.816406 5.167969 14.0625 4.804688 C 14.167969 4.699219 14.167969 4.699219 14.269531 4.632812 C 14.304688 4.609375 14.339844 4.585938 14.375 4.5625 C 14.730469 4.371094 15.242188 4.378906 15.613281 4.542969 Z M 15.613281 4.542969 "/>
<path style=" stroke:none;fill-rule:nonzero;fill:rgb(0%,0%,0%);fill-opacity:1;" d="M 26.800781 22.1875 C 27.082031 22.441406 27.328125 22.695312 27.378906 23.085938 C 27.414062 23.761719 27.019531 24.175781 26.59375 24.652344 C 26.566406 24.6875 26.539062 24.71875 26.507812 24.75 C 26.433594 24.832031 26.363281 24.921875 26.296875 25.007812 C 26.097656 25.253906 25.855469 25.320312 25.554688 25.363281 C 25.175781 25.390625 24.890625 25.289062 24.59375 25.0625 C 24.308594 24.777344 24.199219 24.480469 24.199219 24.082031 C 24.234375 23.6875 24.421875 23.441406 24.667969 23.144531 C 24.710938 23.09375 24.75 23.039062 24.792969 22.984375 C 25.324219 22.3125 25.898438 21.738281 26.800781 22.1875 Z M 26.800781 22.1875 "/>
<path style=" stroke:none;fill-rule:nonzero;fill:rgb(0%,0%,0%);fill-opacity:1;" d="M 29.136719 16.84375 C 29.410156 17.003906 29.648438 17.261719 29.738281 17.566406 C 29.835938 18.035156 29.738281 18.480469 29.613281 18.933594 C 29.597656 18.988281 29.585938 19.042969 29.570312 19.097656 C 29.449219 19.550781 29.257812 19.933594 28.84375 20.1875 C 28.515625 20.328125 28.160156 20.335938 27.8125 20.234375 C 27.472656 20.078125 27.269531 19.863281 27.109375 19.519531 C 27.007812 19.050781 27.105469 18.644531 27.226562 18.195312 C 27.242188 18.132812 27.257812 18.078125 27.269531 18.015625 C 27.378906 17.601562 27.507812 17.214844 27.851562 16.941406 C 28.285156 16.734375 28.679688 16.652344 29.136719 16.84375 Z M 29.136719 16.84375 "/>
<path style=" stroke:none;fill-rule:nonzero;fill:rgb(0%,0%,0%);fill-opacity:1;" d="M 22.285156 25.957031 C 22.601562 26.132812 22.828125 26.382812 22.96875 26.71875 C 23.015625 27.089844 23.015625 27.460938 22.816406 27.789062 C 22.648438 27.996094 22.441406 28.113281 22.207031 28.242188 C 22.167969 28.261719 22.128906 28.285156 22.089844 28.308594 C 21.953125 28.382812 21.816406 28.453125 21.679688 28.523438 C 21.636719 28.546875 21.59375 28.570312 21.546875 28.59375 C 21.199219 28.769531 20.863281 28.863281 20.46875 28.804688 C 20.070312 28.652344 19.792969 28.488281 19.613281 28.089844 C 19.511719 27.75 19.527344 27.390625 19.628906 27.054688 C 20.144531 26.355469 21.417969 25.597656 22.285156 25.957031 Z M 22.285156 25.957031 "/>
</g>
</svg>
