<?xml version="1.0" encoding="UTF-8"?>
<svg xmlns="http://www.w3.org/2000/svg" xmlns:xlink="http://www.w3.org/1999/xlink" width="24px" height="24px" viewBox="0 0 24 24" version="1.1">
<g id="surface1">
<path style=" stroke:none;fill-rule:evenodd;fill:rgb(3.137255%,1.176471%,25.490198%);fill-opacity:1;" d="M 10.648438 3 L 9.929688 3.535156 L 9.328125 5.546875 L 7.476562 4.550781 L 6.589844 4.679688 L 4.679688 6.589844 L 4.550781 7.476562 L 5.546875 9.328125 L 3.535156 9.929688 L 3 10.648438 L 3 13.351562 L 3.535156 14.070312 L 5.546875 14.671875 L 4.550781 16.523438 L 4.679688 17.410156 L 6.589844 19.320312 L 7.476562 19.449219 L 9.328125 18.453125 L 9.929688 20.464844 L 10.648438 21 L 13.351562 21 L 14.070312 20.464844 L 14.671875 18.453125 L 16.523438 19.449219 L 17.410156 19.320312 L 19.320312 17.410156 L 19.449219 16.523438 L 18.453125 14.671875 L 20.464844 14.070312 L 21 13.351562 L 21 10.648438 L 20.464844 9.929688 L 18.453125 9.328125 L 19.449219 7.476562 L 19.320312 6.589844 L 17.410156 4.679688 L 16.523438 4.550781 L 14.671875 5.546875 L 14.070312 3.535156 L 13.351562 3 Z M 10.46875 6.960938 L 11.207031 4.5 L 12.792969 4.5 L 13.53125 6.960938 L 13.875 7.09375 C 13.964844 7.128906 14.054688 7.164062 14.140625 7.207031 L 14.480469 7.355469 L 16.742188 6.136719 L 17.863281 7.257812 L 16.644531 9.519531 L 16.792969 9.859375 C 16.835938 9.945312 16.871094 10.035156 16.90625 10.125 L 17.039062 10.46875 L 19.5 11.207031 L 19.5 12.792969 L 17.039062 13.53125 L 16.90625 13.875 C 16.871094 13.964844 16.835938 14.054688 16.792969 14.140625 L 16.644531 14.480469 L 17.863281 16.742188 L 16.742188 17.863281 L 14.480469 16.644531 L 14.140625 16.792969 C 14.054688 16.835938 13.964844 16.871094 13.875 16.90625 L 13.53125 17.039062 L 12.792969 19.5 L 11.207031 19.5 L 10.46875 17.039062 L 10.125 16.90625 C 10.035156 16.871094 9.945312 16.835938 9.859375 16.792969 L 9.519531 16.644531 L 7.257812 17.863281 L 6.136719 16.742188 L 7.355469 14.480469 L 7.207031 14.140625 C 7.164062 14.054688 7.128906 13.964844 7.09375 13.875 L 6.960938 13.53125 L 4.5 12.792969 L 4.5 11.207031 L 6.960938 10.46875 L 7.09375 10.125 C 7.128906 10.035156 7.164062 9.945312 7.207031 9.859375 L 7.355469 9.519531 L 6.136719 7.257812 L 7.257812 6.136719 L 9.519531 7.355469 L 9.859375 7.207031 C 9.945312 7.164062 10.035156 7.128906 10.125 7.09375 Z M 14.25 12 C 14.25 13.242188 13.242188 14.25 12 14.25 C 10.757812 14.25 9.75 13.242188 9.75 12 C 9.75 10.757812 10.757812 9.75 12 9.75 C 13.242188 9.75 14.25 10.757812 14.25 12 Z M 15.75 12 C 15.75 14.070312 14.070312 15.75 12 15.75 C 9.929688 15.75 8.25 14.070312 8.25 12 C 8.25 9.929688 9.929688 8.25 12 8.25 C 14.070312 8.25 15.75 9.929688 15.75 12 Z M 15.75 12 "/>
</g>
</svg>
