<?xml version="1.0" encoding="UTF-8"?>
<svg xmlns="http://www.w3.org/2000/svg" xmlns:xlink="http://www.w3.org/1999/xlink" width="22px" height="22px" viewBox="0 0 22 22" version="1.1">
<g id="surface1">
<path style=" stroke:none;fill-rule:nonzero;fill:rgb(9.803922%,36.470589%,66.666669%);fill-opacity:1;" d="M 12.832031 4.847656 L 11.917969 4.847656 C 11.917969 5.253906 12.183594 5.613281 12.570312 5.726562 Z M 14.050781 5.355469 L 13.617188 6.160156 C 13.972656 6.355469 14.414062 6.289062 14.699219 6.003906 Z M 14.890625 4.519531 L 14.242188 3.871094 Z M 16.183594 4.519531 L 15.539062 5.167969 Z M 17.480469 5.816406 L 18.128906 5.167969 Z M 17.480469 7.109375 L 16.832031 6.460938 Z M 16.644531 7.949219 L 15.996094 7.300781 C 15.710938 7.585938 15.644531 8.027344 15.839844 8.382812 Z M 17.152344 9.167969 L 16.273438 9.429688 C 16.386719 9.816406 16.746094 10.082031 17.152344 10.082031 Z M 17.152344 12.832031 L 17.152344 11.917969 C 16.746094 11.917969 16.386719 12.183594 16.273438 12.570312 Z M 16.644531 14.050781 L 15.839844 13.617188 C 15.644531 13.972656 15.710938 14.414062 15.996094 14.699219 Z M 17.480469 14.890625 L 18.128906 14.242188 Z M 17.480469 16.183594 L 16.832031 15.539062 Z M 16.183594 17.480469 L 16.832031 18.128906 Z M 14.050781 16.644531 L 14.699219 15.996094 C 14.414062 15.710938 13.972656 15.644531 13.617188 15.839844 Z M 12.832031 17.152344 L 12.570312 16.273438 C 12.183594 16.386719 11.917969 16.746094 11.917969 17.152344 Z M 9.167969 17.152344 L 10.082031 17.152344 C 10.082031 16.746094 9.816406 16.386719 9.429688 16.273438 Z M 7.949219 16.644531 L 8.382812 15.839844 C 8.027344 15.644531 7.585938 15.710938 7.300781 15.996094 Z M 7.109375 17.480469 L 6.460938 16.832031 Z M 5.816406 17.480469 L 5.167969 18.128906 Z M 4.519531 16.183594 L 3.871094 16.832031 Z M 4.519531 14.890625 L 3.871094 14.242188 Z M 5.355469 14.050781 L 6.003906 14.699219 C 6.289062 14.414062 6.355469 13.972656 6.160156 13.617188 Z M 4.847656 12.832031 L 5.726562 12.570312 C 5.613281 12.183594 5.253906 11.917969 4.847656 11.917969 Z M 4.847656 9.167969 L 4.847656 10.082031 C 5.253906 10.082031 5.613281 9.816406 5.726562 9.429688 Z M 5.355469 7.949219 L 6.160156 8.382812 C 6.355469 8.027344 6.289062 7.585938 6.003906 7.300781 Z M 4.519531 7.109375 L 3.871094 7.757812 Z M 4.519531 5.816406 L 5.167969 6.460938 Z M 5.816406 4.519531 L 6.460938 5.167969 Z M 7.109375 4.519531 L 7.757812 3.871094 Z M 7.949219 5.355469 L 7.300781 6.003906 C 7.585938 6.289062 8.027344 6.355469 8.382812 6.160156 Z M 9.167969 4.847656 L 9.429688 5.726562 C 9.816406 5.613281 10.082031 5.253906 10.082031 4.847656 Z M 10.082031 1.832031 C 9.070312 1.832031 8.25 2.652344 8.25 3.667969 L 10.082031 3.667969 Z M 11.917969 1.832031 L 10.082031 1.832031 L 10.082031 3.667969 L 11.917969 3.667969 Z M 13.75 3.667969 C 13.75 2.652344 12.929688 1.832031 11.917969 1.832031 L 11.917969 3.667969 Z M 13.75 4.847656 L 13.75 3.667969 L 11.917969 3.667969 L 11.917969 4.847656 Z M 14.488281 4.546875 C 14.050781 4.308594 13.582031 4.117188 13.09375 3.96875 L 12.570312 5.726562 C 12.9375 5.835938 13.285156 5.980469 13.617188 6.160156 Z M 14.242188 3.871094 L 13.40625 4.707031 L 14.699219 6.003906 L 15.539062 5.167969 Z M 16.832031 3.871094 C 16.117188 3.152344 14.957031 3.152344 14.242188 3.871094 L 15.539062 5.167969 Z M 18.128906 5.167969 L 16.832031 3.871094 L 15.539062 5.167969 L 16.832031 6.460938 Z M 18.128906 7.757812 C 18.847656 7.042969 18.847656 5.882812 18.128906 5.167969 L 16.832031 6.460938 Z M 17.292969 8.59375 L 18.128906 7.757812 L 16.832031 6.460938 L 15.996094 7.300781 Z M 18.03125 8.90625 C 17.882812 8.417969 17.691406 7.949219 17.453125 7.511719 L 15.839844 8.382812 C 16.019531 8.714844 16.164062 9.0625 16.273438 9.429688 Z M 17.152344 10.082031 L 18.332031 10.082031 L 18.332031 8.25 L 17.152344 8.25 Z M 18.332031 10.082031 L 20.167969 10.082031 C 20.167969 9.070312 19.347656 8.25 18.332031 8.25 Z M 18.332031 10.082031 L 18.332031 11.917969 L 20.167969 11.917969 L 20.167969 10.082031 Z M 18.332031 11.917969 L 18.332031 13.75 C 19.347656 13.75 20.167969 12.929688 20.167969 11.917969 Z M 18.332031 11.917969 L 17.152344 11.917969 L 17.152344 13.75 L 18.332031 13.75 Z M 17.453125 14.488281 C 17.691406 14.050781 17.882812 13.582031 18.03125 13.09375 L 16.273438 12.570312 C 16.164062 12.9375 16.019531 13.285156 15.839844 13.617188 Z M 18.128906 14.242188 L 17.292969 13.40625 L 15.996094 14.699219 L 16.832031 15.539062 Z M 18.128906 16.832031 C 18.847656 16.117188 18.847656 14.957031 18.128906 14.242188 L 16.832031 15.539062 Z M 16.832031 18.128906 L 18.128906 16.832031 L 16.832031 15.539062 L 15.539062 16.832031 Z M 14.242188 18.128906 C 14.957031 18.847656 16.117188 18.847656 16.832031 18.128906 L 15.539062 16.832031 Z M 13.40625 17.292969 L 14.242188 18.128906 L 15.539062 16.832031 L 14.699219 15.996094 Z M 13.09375 18.03125 C 13.582031 17.882812 14.050781 17.691406 14.488281 17.453125 L 13.617188 15.839844 C 13.285156 16.019531 12.9375 16.164062 12.570312 16.273438 Z M 13.75 18.332031 L 13.75 17.152344 L 11.917969 17.152344 L 11.917969 18.332031 Z M 11.917969 20.167969 C 12.929688 20.167969 13.75 19.347656 13.75 18.332031 L 11.917969 18.332031 Z M 10.082031 20.167969 L 11.917969 20.167969 L 11.917969 18.332031 L 10.082031 18.332031 Z M 8.25 18.332031 C 8.25 19.347656 9.070312 20.167969 10.082031 20.167969 L 10.082031 18.332031 Z M 8.25 17.152344 L 8.25 18.332031 L 10.082031 18.332031 L 10.082031 17.152344 Z M 7.511719 17.453125 C 7.949219 17.691406 8.417969 17.882812 8.90625 18.03125 L 9.429688 16.273438 C 9.0625 16.164062 8.714844 16.019531 8.382812 15.839844 Z M 7.757812 18.128906 L 8.59375 17.292969 L 7.300781 15.996094 L 6.460938 16.832031 Z M 5.167969 18.128906 C 5.882812 18.847656 7.042969 18.847656 7.757812 18.128906 L 6.460938 16.832031 Z M 3.871094 16.832031 L 5.167969 18.128906 L 6.460938 16.832031 L 5.167969 15.539062 Z M 3.871094 14.242188 C 3.152344 14.957031 3.152344 16.117188 3.871094 16.832031 L 5.167969 15.539062 Z M 4.707031 13.40625 L 3.871094 14.242188 L 5.167969 15.539062 L 6.003906 14.699219 Z M 3.96875 13.09375 C 4.117188 13.582031 4.308594 14.050781 4.546875 14.488281 L 6.160156 13.617188 C 5.980469 13.285156 5.835938 12.9375 5.726562 12.570312 Z M 4.847656 11.917969 L 3.667969 11.917969 L 3.667969 13.75 L 4.847656 13.75 Z M 3.667969 11.917969 L 1.832031 11.917969 C 1.832031 12.929688 2.652344 13.75 3.667969 13.75 Z M 3.667969 11.917969 L 3.667969 10.082031 L 1.832031 10.082031 L 1.832031 11.917969 Z M 3.667969 10.082031 L 3.667969 8.25 C 2.652344 8.25 1.832031 9.070312 1.832031 10.082031 Z M 3.667969 10.082031 L 4.847656 10.082031 L 4.847656 8.25 L 3.667969 8.25 Z M 4.546875 7.511719 C 4.308594 7.949219 4.117188 8.417969 3.96875 8.90625 L 5.726562 9.429688 C 5.835938 9.0625 5.980469 8.714844 6.160156 8.382812 Z M 3.871094 7.757812 L 4.707031 8.59375 L 6.003906 7.300781 L 5.167969 6.460938 Z M 3.871094 5.167969 C 3.152344 5.882812 3.152344 7.042969 3.871094 7.757812 L 5.167969 6.460938 Z M 5.167969 3.871094 L 3.871094 5.167969 L 5.167969 6.460938 L 6.460938 5.167969 Z M 7.757812 3.871094 C 7.042969 3.152344 5.882812 3.152344 5.167969 3.871094 L 6.460938 5.167969 Z M 8.59375 4.707031 L 7.757812 3.871094 L 6.460938 5.167969 L 7.300781 6.003906 Z M 8.90625 3.96875 C 8.417969 4.117188 7.949219 4.308594 7.511719 4.546875 L 8.382812 6.160156 C 8.714844 5.980469 9.0625 5.835938 9.429688 5.726562 Z M 8.25 3.667969 L 8.25 4.847656 L 10.082031 4.847656 L 10.082031 3.667969 Z M 8.25 3.667969 "/>
<path style="fill:none;stroke-width:2;stroke-linecap:round;stroke-linejoin:round;stroke:rgb(9.803922%,36.470589%,66.666669%);stroke-opacity:1;stroke-miterlimit:4;" d="M 15 12 C 15 10.34233 13.65767 9 12 9 C 10.34233 9 9 10.34233 9 12 C 9 13.65767 10.34233 15 12 15 C 13.65767 15 15 13.65767 15 12 Z M 15 12 " transform="matrix(0.916667,0,0,0.916667,0,0)"/>
</g>
</svg>
