<?xml version="1.0" encoding="UTF-8"?>
<svg xmlns="http://www.w3.org/2000/svg" xmlns:xlink="http://www.w3.org/1999/xlink" width="22px" height="22px" viewBox="0 0 22 22" version="1.1">
<g id="surface1">
<path style="fill:none;stroke-width:2;stroke-linecap:round;stroke-linejoin:round;stroke:rgb(0%,0%,0%);stroke-opacity:1;stroke-miterlimit:4;" d="M 10.00142 10.99858 L 10.00142 16.99858 " transform="matrix(0.916667,0,0,0.916667,0,0)"/>
<path style="fill:none;stroke-width:2;stroke-linecap:round;stroke-linejoin:round;stroke:rgb(0%,0%,0%);stroke-opacity:1;stroke-miterlimit:4;" d="M 13.99858 10.99858 L 13.99858 16.99858 " transform="matrix(0.916667,0,0,0.916667,0,0)"/>
<path style="fill:none;stroke-width:2;stroke-linecap:round;stroke-linejoin:round;stroke:rgb(0%,0%,0%);stroke-opacity:1;stroke-miterlimit:4;" d="M 4.00142 7.00142 L 19.99858 7.00142 " transform="matrix(0.916667,0,0,0.916667,0,0)"/>
<path style="fill:none;stroke-width:2;stroke-linecap:round;stroke-linejoin:round;stroke:rgb(0%,0%,0%);stroke-opacity:1;stroke-miterlimit:4;" d="M 6 7.00142 L 18 7.00142 L 18 18 C 18 19.65767 16.65767 21 15 21 L 9 21 C 7.34233 21 6 19.65767 6 18 Z M 6 7.00142 " transform="matrix(0.916667,0,0,0.916667,0,0)"/>
<path style="fill:none;stroke-width:2;stroke-linecap:round;stroke-linejoin:round;stroke:rgb(0%,0%,0%);stroke-opacity:1;stroke-miterlimit:4;" d="M 9 4.99858 C 9 3.894886 9.894886 3 10.99858 3 L 13.00142 3 C 14.105114 3 15 3.894886 15 4.99858 L 15 7.00142 L 9 7.00142 Z M 9 4.99858 " transform="matrix(0.916667,0,0,0.916667,0,0)"/>
</g>
</svg>
